<svg width="290" height="217" viewBox="0 0 290 217" fill="none" xmlns="http://www.w3.org/2000/svg">
<path d="M290 189.892H0V190.037H290V189.892Z" fill="#EBEBEB"/>
<path d="M260.942 199.224H241.732V199.369H260.942V199.224Z" fill="#EBEBEB"/>
<path d="M192.108 200.802H187.067V200.947H192.108V200.802Z" fill="#EBEBEB"/>
<path d="M241.153 193.842H230.022V193.987H241.153V193.842Z" fill="#EBEBEB"/>
<path d="M55.477 194.816H30.4268V194.961H55.477V194.816Z" fill="#EBEBEB"/>
<path d="M64.3159 194.816H60.6445V194.961H64.3159V194.816Z" fill="#EBEBEB"/>
<path d="M130.587 197.263H76.2529V197.408H130.587V197.263Z" fill="#EBEBEB"/>
<path d="M137.46 164.024H25.4681C24.5908 164.022 23.7499 163.673 23.1301 163.052C22.5102 162.431 22.1621 161.59 22.1621 160.712V3.2828C22.1697 2.41049 22.5212 1.57643 23.1402 0.961767C23.7593 0.347106 24.5958 0.0014943 25.4681 0H137.46C138.339 0 139.181 0.348921 139.802 0.970004C140.423 1.59109 140.772 2.43346 140.772 3.3118V160.712C140.772 161.591 140.423 162.433 139.802 163.054C139.181 163.675 138.339 164.024 137.46 164.024ZM25.4681 0.116C24.6292 0.117537 23.8252 0.451858 23.2326 1.04558C22.64 1.63931 22.3071 2.44392 22.3071 3.2828V160.712C22.3071 161.551 22.64 162.356 23.2326 162.949C23.8252 163.543 24.6292 163.877 25.4681 163.879H137.46C138.3 163.877 139.104 163.543 139.698 162.95C140.291 162.356 140.626 161.552 140.627 160.712V3.2828C140.626 2.44338 140.291 1.63879 139.698 1.04523C139.104 0.451669 138.3 0.117534 137.46 0.116H25.4681Z" fill="#EBEBEB"/>
<path d="M262.92 164.024H150.922C150.044 164.022 149.203 163.673 148.582 163.052C147.961 162.432 147.612 161.59 147.61 160.712V3.2828C147.62 2.40997 147.972 1.5759 148.592 0.961404C149.212 0.346903 150.049 0.00147801 150.922 0H262.92C263.791 0.00301861 264.627 0.349305 265.244 0.963802C265.862 1.5783 266.213 2.4115 266.22 3.2828V160.712C266.22 161.589 265.873 162.429 265.254 163.05C264.636 163.671 263.796 164.021 262.92 164.024ZM150.922 0.116C150.083 0.117534 149.278 0.451669 148.685 1.04523C148.091 1.63879 147.757 2.44338 147.755 3.2828V160.712C147.757 161.552 148.091 162.356 148.685 162.95C149.278 163.543 150.083 163.877 150.922 163.879H262.92C263.76 163.877 264.564 163.543 265.158 162.95C265.751 162.356 266.085 161.552 266.087 160.712V3.2828C266.085 2.44338 265.751 1.63879 265.158 1.04523C264.564 0.451669 263.76 0.117534 262.92 0.116H150.922Z" fill="#EBEBEB"/>
<path d="M227.986 12.2725H58.748V91.4541H227.986V12.2725Z" fill="#E6E6E6"/>
<path d="M230.533 12.2725H59.9375V91.4541H230.533V12.2725Z" fill="#F0F0F0"/>
<path d="M227.986 91.4551H58.748V95.4919H227.986V91.4551Z" fill="#E6E6E6"/>
<path d="M234.778 91.4551H64.1826V95.4919H234.778V91.4551Z" fill="#F0F0F0"/>
<path d="M226.966 87.8866V15.8448L63.5102 15.8448V87.8866L226.966 87.8866Z" fill="#FAFAFA"/>
<path d="M81.043 87.8866L90.9784 15.8448H106.482L96.5464 87.8866H81.043Z" fill="white"/>
<path d="M65.1575 84.3308C65.0899 84.3308 65.0249 84.3039 64.9771 84.2561C64.9292 84.2082 64.9023 84.1433 64.9023 84.0756V18.1644C64.9023 18.0967 64.9292 18.0318 64.9771 17.984C65.0249 17.9361 65.0899 17.9092 65.1575 17.9092C65.1911 17.9092 65.2242 17.9158 65.2552 17.9286C65.2862 17.9415 65.3143 17.9603 65.338 17.984C65.3617 18.0077 65.3805 18.0358 65.3933 18.0668C65.4061 18.0977 65.4127 18.1309 65.4127 18.1644V84.0988C65.4083 84.1629 65.3793 84.2228 65.3317 84.266C65.2842 84.3093 65.2218 84.3325 65.1575 84.3308Z" fill="#F0F0F0"/>
<path d="M99.876 87.8866L109.811 15.8448H115.855L105.92 87.8866H99.876Z" fill="white"/>
<path d="M226.966 87.8866V15.8448H226.513V87.8866H226.966Z" fill="#E6E6E6"/>
<path opacity="0.6" d="M231.374 21.2279H62.1411L61.8105 17.2317H231.049L231.374 21.2279Z" fill="#EBEBEB"/>
<path opacity="0.6" d="M231.374 27.7755H62.1411L61.8105 23.7793H231.049L231.374 27.7755Z" fill="#EBEBEB"/>
<path opacity="0.6" d="M231.374 34.3302H62.1411L61.8105 30.334H231.049L231.374 34.3302Z" fill="#EBEBEB"/>
<path opacity="0.6" d="M231.374 40.8782H62.1411L61.8105 36.882H231.049L231.374 40.8782Z" fill="#EBEBEB"/>
<path opacity="0.6" d="M231.374 47.4328H62.1411L61.8105 43.4366H231.049L231.374 47.4328Z" fill="#EBEBEB"/>
<path opacity="0.6" d="M231.374 53.9805H62.1411L61.8105 49.9843H231.049L231.374 53.9805Z" fill="#EBEBEB"/>
<path d="M254.62 111.36H228.793V189.892H254.62V111.36Z" fill="#E6E6E6"/>
<path d="M247.724 189.891H254.62V179.051H240.491L247.724 189.891Z" fill="#FAFAFA"/>
<path d="M184.202 111.36H158.375V189.892H184.202V111.36Z" fill="#E6E6E6"/>
<path d="M254.62 111.36H178.182V186.163H254.62V111.36Z" fill="#FAFAFA"/>
<path d="M185.078 189.891H178.182V179.051H192.31L185.078 189.891Z" fill="#FAFAFA"/>
<path d="M249.266 139.235H183.529V157.952H249.266V139.235Z" fill="#F0F0F0"/>
<path d="M249.266 161.954H183.529V180.671H249.266V161.954Z" fill="#F0F0F0"/>
<path d="M193.859 137.61H238.96V138.521C238.96 139.239 238.675 139.928 238.167 140.436C237.659 140.944 236.97 141.23 236.252 141.23H196.574C195.855 141.23 195.166 140.944 194.659 140.436C194.151 139.928 193.865 139.239 193.865 138.521V137.61H193.859Z" fill="#FAFAFA"/>
<path d="M249.266 116.51H183.529V135.227H249.266V116.51Z" fill="#F0F0F0"/>
<path d="M193.859 114.892H238.96V115.802C238.96 116.521 238.675 117.21 238.167 117.718C237.659 118.225 236.97 118.511 236.252 118.511H196.574C195.855 118.511 195.166 118.225 194.659 117.718C194.151 117.21 193.865 116.521 193.865 115.802V114.892H193.859Z" fill="#FAFAFA"/>
<path d="M193.859 160.329H238.96V161.24C238.96 161.958 238.675 162.647 238.167 163.155C237.659 163.663 236.97 163.948 236.252 163.948H196.574C195.855 163.948 195.166 163.663 194.659 163.155C194.151 162.647 193.865 161.958 193.865 161.24V160.329H193.859Z" fill="#FAFAFA"/>
<path d="M30.9835 128.103C32.4219 123.968 43.7435 129.588 48.3835 136.432C51.4517 140.991 53.3251 145.857 54.1835 152.394C54.0791 144.935 53.9631 136.925 53.8471 129.362C52.9133 127.477 50.7847 123.127 49.2593 119.682C44.1553 108.186 32.0217 103.906 27.7993 96.6498C22.3067 87.1378 22.3415 72.8698 27.0163 67.731C31.0763 63.2534 44.5323 93.5004 46.0519 96.8818C51.2719 108.482 52.7799 117.13 53.7543 125.487C53.6441 118.382 53.5397 111.863 53.4527 106.829C53.1685 90.4148 52.8089 85.1368 52.6465 83.5128C52.0665 82.7182 51.4227 81.7728 51.0341 81.2972C47.7803 77.1038 40.5535 72.1158 36.9459 66.02C31.6737 57.1228 32.5263 46.474 36.2209 42.5068C40.1185 38.3598 46.9799 48.1386 50.5817 57.871C54.1835 67.6034 52.6581 76.8718 53.6789 84.9396C53.8935 86.5172 54.1081 92.526 54.3169 100.861C55.4189 91.8938 57.6113 85.885 61.6713 80.288C66.6709 73.4034 70.9861 65.0224 75.1041 66.107C79.2221 67.1916 77.0065 78.287 73.7469 86.0706C70.8469 93.0016 56.5325 99.921 54.4213 105.495C54.6707 116.793 54.8911 131.102 55.0535 144.424C56.1787 137.54 55.4015 136.966 60.0299 126.444C62.7791 120.18 74.0485 112.461 75.3941 116.764C76.7397 121.068 74.6923 129.199 70.4409 134.895C67.0073 139.494 59.4209 139.489 57.6287 142.336C57.2169 143.003 55.8887 145.555 55.0825 147.017C55.2623 163.286 55.3493 177.641 55.2565 182.536L54.5141 182.588C54.5547 181.324 54.4619 173.047 54.3169 162.097C52.4667 156.297 40.0199 152.875 36.1745 146.814C32.1493 140.457 29.2551 133.056 30.9835 128.103Z" fill="#E6E6E6"/>
<path d="M42.6883 189.892H66.5843C67.2174 189.891 67.8309 189.672 68.3212 189.272C68.8115 188.871 69.1486 188.314 69.2755 187.694L70.9691 179.33H38.2803L40.0203 187.694C40.1463 188.31 40.48 188.864 40.9655 189.265C41.4511 189.665 42.0592 189.886 42.6883 189.892Z" fill="#F0F0F0"/>
<path d="M37.6188 182.572H71.6532C72.0479 182.572 72.4287 182.426 72.7228 182.163C73.017 181.9 73.204 181.537 73.2482 181.145L73.9442 174.962C73.9686 174.738 73.9456 174.512 73.8766 174.297C73.8076 174.082 73.6942 173.884 73.5438 173.717C73.3933 173.549 73.2092 173.414 73.0034 173.322C72.7976 173.23 72.5747 173.182 72.3492 173.182H36.9228C36.6973 173.182 36.4744 173.23 36.2686 173.322C36.0628 173.414 35.8787 173.549 35.7283 173.717C35.5778 173.884 35.4644 174.082 35.3954 174.297C35.3264 174.512 35.3034 174.738 35.3278 174.962L36.0238 181.145C36.068 181.537 36.255 181.9 36.5492 182.163C36.8433 182.426 37.2241 182.572 37.6188 182.572Z" fill="#F0F0F0"/>
<path d="M103.147 152.32H82.7256V189.892H103.147V152.32Z" fill="#E0E0E0"/>
<path d="M155.196 189.891H86.82L79.6338 138.909H148.01L155.196 189.891Z" fill="#E6E6E6"/>
<path d="M165.173 189.891H89.5349L82.3545 138.909H157.987L165.173 189.891Z" fill="#F0F0F0"/>
<path d="M96.9351 181.922L90.8857 146.878H150.585L156.635 181.922H96.9351Z" fill="white"/>
<path d="M122.589 181.922L102.301 146.878H108.663L128.958 181.922H122.589Z" fill="#FAFAFA"/>
<path d="M131.655 181.922L111.36 146.878H122.218L142.506 181.922H131.655Z" fill="#FAFAFA"/>
<path d="M145 216.085C207.108 216.085 257.456 213.146 257.456 209.52C257.456 205.894 207.108 202.954 145 202.954C82.8923 202.954 32.5439 205.894 32.5439 209.52C32.5439 213.146 82.8923 216.085 145 216.085Z" fill="#F5F5F5"/>
<path d="M74.5373 96.5882C74.475 96.5885 74.4149 96.5654 74.3687 96.5236C74.3225 96.4817 74.2937 96.4241 74.2879 96.362L73.0003 80.876C72.9971 80.8133 73.0182 80.7517 73.0592 80.7041C73.1003 80.6566 73.1582 80.6267 73.2207 80.6208C73.286 80.616 73.3505 80.637 73.4004 80.6793C73.4503 80.7216 73.4816 80.7819 73.4875 80.847L74.7751 96.333C74.78 96.3983 74.759 96.4628 74.7166 96.5127C74.6743 96.5626 74.6141 96.5939 74.5489 96.5998L74.5373 96.5882Z" fill="#743698"/>
<path d="M75.3032 105.786C75.2409 105.786 75.1807 105.763 75.1346 105.721C75.0884 105.679 75.0596 105.622 75.0538 105.56L74.6652 100.873C74.662 100.841 74.6654 100.808 74.6751 100.777C74.6849 100.746 74.7008 100.717 74.7219 100.692C74.743 100.667 74.7688 100.647 74.798 100.632C74.8271 100.617 74.8589 100.609 74.8914 100.606C74.9239 100.603 74.9567 100.607 74.9878 100.616C75.0189 100.626 75.0478 100.642 75.0727 100.663C75.0976 100.684 75.118 100.71 75.1327 100.739C75.1474 100.768 75.156 100.8 75.1582 100.833L75.5468 105.519C75.5517 105.584 75.5306 105.649 75.4883 105.699C75.446 105.749 75.3858 105.78 75.3206 105.786H75.3032Z" fill="#743698"/>
<path d="M205.786 149.855H86.0271C84.5183 149.825 83.0727 149.243 81.9642 148.219C80.8557 147.195 80.1613 145.8 80.0125 144.298L73.2671 63.22C73.1951 62.5119 73.2736 61.7964 73.4977 61.1208C73.7218 60.4451 74.0863 59.8245 74.5672 59.2998C75.0482 58.775 75.6347 58.3579 76.2883 58.0759C76.9419 57.7939 77.6478 57.6534 78.3595 57.6636H198.112C199.622 57.693 201.068 58.2748 202.177 59.2987C203.287 60.3227 203.982 61.7178 204.133 63.22L210.878 144.287C210.951 144.996 210.873 145.712 210.649 146.388C210.426 147.065 210.061 147.687 209.58 148.213C209.1 148.739 208.513 149.157 207.859 149.44C207.205 149.723 206.498 149.864 205.786 149.855Z" fill="white"/>
<path d="M205.786 150.087H86.0272C84.4595 150.061 82.9561 149.459 81.8039 148.396C80.6517 147.332 79.9315 145.882 79.7806 144.321L73.0352 63.2491C72.9671 62.5094 73.0541 61.7636 73.2908 61.0595C73.5275 60.3553 73.9087 59.7084 74.4098 59.1601C74.9084 58.6081 75.518 58.1677 76.1987 57.8679C76.8794 57.568 77.6158 57.4154 78.3596 57.4201H198.112C199.686 57.445 201.196 58.0512 202.35 59.1219C203.504 60.1926 204.222 61.6522 204.365 63.2201L211.104 144.287C211.179 145.026 211.096 145.773 210.862 146.478C210.627 147.183 210.247 147.831 209.744 148.378C209.242 148.926 208.63 149.361 207.948 149.656C207.265 149.95 206.529 150.097 205.786 150.087ZM78.3596 57.9073C77.6788 57.8962 77.0034 58.0297 76.3779 58.2989C75.7525 58.5681 75.1914 58.967 74.7315 59.4691C74.2716 59.9712 73.9234 60.5652 73.71 61.2117C73.4966 61.8583 73.4227 62.5428 73.4934 63.2201L80.2388 144.281C80.3822 145.728 81.0524 147.071 82.1218 148.056C83.1911 149.041 84.5852 149.598 86.0388 149.623H205.786C206.465 149.633 207.139 149.499 207.762 149.23C208.386 148.961 208.946 148.563 209.405 148.062C209.864 147.562 210.212 146.97 210.426 146.325C210.64 145.68 210.715 144.997 210.646 144.321L203.901 63.2491C203.758 61.8019 203.089 60.4576 202.019 59.4725C200.949 58.4873 199.555 57.9302 198.101 57.9073H78.3596Z" fill="#743698"/>
<path d="M198.112 57.6756H78.3594C77.6487 57.6655 76.9439 57.8058 76.2912 58.087C75.6384 58.3683 75.0525 58.7843 74.5717 59.3078C74.091 59.8313 73.7262 60.4504 73.5014 61.1247C73.2765 61.7989 73.1966 62.5131 73.267 63.2203H204.132C203.98 61.7202 203.283 60.3278 202.174 59.3063C201.064 58.2847 199.62 57.7046 198.112 57.6756Z" fill="#743698"/>
<path d="M81.1608 60.4526C81.1772 60.6055 81.161 60.7601 81.1132 60.9062C81.0654 61.0523 80.987 61.1866 80.8834 61.3001C80.7797 61.4136 80.6531 61.5038 80.5119 61.5647C80.3708 61.6256 80.2183 61.6558 80.0646 61.6532C79.7387 61.6464 79.4267 61.5205 79.1873 61.2993C78.948 61.0781 78.7979 60.7769 78.7654 60.4526C78.7498 60.3 78.7667 60.1458 78.8149 60.0001C78.8631 59.8544 78.9415 59.7205 79.0449 59.6072C79.1484 59.4938 79.2746 59.4036 79.4153 59.3424C79.5561 59.2812 79.7081 59.2504 79.8616 59.252C80.1881 59.2564 80.5016 59.3814 80.7415 59.6031C80.9813 59.8248 81.1307 60.1274 81.1608 60.4526Z" fill="white"/>
<path d="M86.0331 60.4526C86.0495 60.6055 86.0333 60.7601 85.9855 60.9062C85.9377 61.0523 85.8593 61.1866 85.7557 61.3001C85.652 61.4136 85.5254 61.5038 85.3842 61.5647C85.2431 61.6256 85.0906 61.6558 84.9369 61.6532C84.6151 61.6408 84.3087 61.5124 84.0741 61.2918C83.8396 61.0711 83.6928 60.7731 83.6609 60.4526C83.6453 60.3 83.6622 60.1458 83.7104 60.0001C83.7586 59.8544 83.837 59.7205 83.9404 59.6072C84.0439 59.4938 84.1701 59.4036 84.3108 59.3424C84.4516 59.2812 84.6036 59.2504 84.7571 59.252C85.0796 59.262 85.3874 59.3896 85.6224 59.6107C85.8574 59.8318 86.0035 60.1313 86.0331 60.4526Z" fill="white"/>
<path d="M90.9049 60.4526C90.9214 60.6055 90.9051 60.7601 90.8573 60.9062C90.8095 61.0523 90.7311 61.1866 90.6275 61.3001C90.5238 61.4136 90.3972 61.5038 90.2561 61.5647C90.1149 61.6256 89.9624 61.6558 89.8087 61.6532C89.4829 61.6464 89.1708 61.5205 88.9315 61.2993C88.6921 61.0781 88.542 60.7769 88.5095 60.4526C88.494 60.3 88.5109 60.1458 88.559 60.0001C88.6072 59.8544 88.6856 59.7205 88.7891 59.6072C88.8925 59.4938 89.0188 59.4036 89.1595 59.3424C89.3002 59.2812 89.4523 59.2504 89.6057 59.252C89.9323 59.2564 90.2457 59.3814 90.4856 59.6031C90.7255 59.8248 90.8748 60.1274 90.9049 60.4526Z" fill="white"/>
<path d="M195.392 139.23H94.6804C93.4808 139.208 92.3312 138.746 91.4493 137.932C90.5674 137.119 90.0145 136.01 89.8954 134.816L85.1626 78.3011C85.1061 77.7375 85.1695 77.1682 85.3486 76.6308C85.5278 76.0935 85.8187 75.6001 86.2022 75.1832C86.5857 74.7663 87.0531 74.4352 87.5737 74.2119C88.0943 73.9885 88.6562 73.8779 89.2226 73.8873H189.951C191.151 73.9098 192.301 74.3715 193.182 75.185C194.064 75.9985 194.617 77.1072 194.736 78.3011L199.44 134.845C199.492 135.406 199.426 135.971 199.245 136.504C199.065 137.037 198.774 137.526 198.393 137.939C198.011 138.353 197.546 138.682 197.029 138.904C196.512 139.126 195.954 139.237 195.392 139.23Z" fill="#F0F0F0"/>
<path opacity="0.1" d="M164.235 83.7581L133.031 121.331C132.05 122.51 131.39 123.923 131.114 125.432C130.838 126.941 130.956 128.496 131.456 129.947C131.957 131.397 132.822 132.694 133.97 133.712C135.117 134.731 136.508 135.436 138.007 135.761L188.641 146.705C190.225 147.049 191.872 146.955 193.406 146.433C194.941 145.912 196.304 144.982 197.35 143.745C198.396 142.507 199.086 141.008 199.345 139.409C199.604 137.809 199.422 136.169 198.82 134.665L179.408 86.1419C178.834 84.7021 177.896 83.4364 176.684 82.4694C175.473 81.5024 174.031 80.8674 172.5 80.6269C170.969 80.3863 169.402 80.5486 167.953 81.0976C166.503 81.6466 165.222 82.5635 164.235 83.7581Z" fill="#263238"/>
<path opacity="0.1" d="M94.7736 89.0243L83.9044 118.32C83.5789 119.215 83.4851 120.177 83.6318 121.117C83.7786 122.058 84.161 122.946 84.7435 123.698C85.326 124.451 86.0896 125.044 86.9632 125.422C87.8367 125.8 88.7917 125.951 89.7392 125.86L121.483 122.746C122.493 122.647 123.458 122.277 124.275 121.676C125.093 121.075 125.733 120.264 126.128 119.329C126.523 118.394 126.658 117.37 126.519 116.364C126.381 115.359 125.973 114.409 125.34 113.616L104.46 87.4583C103.836 86.6797 103.017 86.0806 102.086 85.7221C101.154 85.3637 100.145 85.2587 99.1601 85.4179C98.1753 85.5771 97.2503 85.9949 96.4796 86.6285C95.709 87.2621 95.1203 88.0888 94.7736 89.0243Z" fill="#263238"/>
<path d="M174.999 74.2986L145.825 116.639C144.913 117.961 144.357 119.495 144.208 121.094C144.06 122.694 144.324 124.304 144.976 125.772C145.628 127.24 146.645 128.516 147.931 129.478C149.217 130.44 150.729 131.055 152.321 131.266L205.947 138.406C207.634 138.631 209.35 138.392 210.912 137.717C212.473 137.042 213.822 135.954 214.813 134.572C215.805 133.189 216.401 131.563 216.54 129.867C216.678 128.171 216.353 126.469 215.599 124.944L191.146 75.447C190.42 73.9806 189.323 72.7295 187.965 71.8177C186.606 70.906 185.033 70.3652 183.401 70.2492C181.769 70.1331 180.135 70.4457 178.661 71.1561C177.187 71.8664 175.925 72.9497 174.999 74.2986Z" fill="#F0516D"/>
<path d="M153.592 127.485C152.623 127.353 151.702 126.984 150.911 126.41C150.12 125.836 149.482 125.076 149.056 124.196C148.617 123.364 148.41 122.43 148.458 121.49C148.506 120.551 148.807 119.642 149.329 118.86L178.578 76.3924C179.107 75.6348 179.838 75.0416 180.689 74.6805C181.539 74.3194 182.474 74.2051 183.386 74.3508C184.355 74.4815 185.277 74.8503 186.068 75.4241C186.86 75.998 187.497 76.7591 187.922 77.6394L212.421 127.258C212.861 128.09 213.067 129.025 213.019 129.964C212.971 130.903 212.67 131.812 212.149 132.594C211.621 133.353 210.89 133.948 210.039 134.31C209.189 134.673 208.253 134.787 207.34 134.642L153.592 127.485Z" fill="white"/>
<path d="M180.898 89.3604L184.314 89.8128C185.382 89.9634 186.358 90.5019 187.054 91.3256C187.75 92.1493 188.119 93.2005 188.09 94.2788L187.858 98.7332C187.853 98.8947 187.835 99.0556 187.806 99.2146L185.376 112.642C185.202 113.567 184.673 114.388 183.903 114.93C183.133 115.471 182.182 115.691 181.252 115.542C180.265 115.401 179.355 114.931 178.669 114.208C177.984 113.484 177.563 112.55 177.476 111.557L176.496 97.6834C176.484 97.5231 176.484 97.3622 176.496 97.202L176.722 92.7418C176.747 92.2351 176.878 91.7393 177.107 91.2868C177.337 90.8343 177.659 90.4354 178.053 90.1162C178.447 89.797 178.905 89.5646 179.395 89.4344C179.885 89.3041 180.397 89.2789 180.898 89.3604ZM180.626 119.265L181.554 119.387C182.509 119.522 183.382 120.004 184.006 120.741C184.629 121.478 184.96 122.418 184.935 123.383C184.915 123.838 184.798 124.284 184.593 124.691C184.389 125.098 184.1 125.457 183.747 125.744C183.394 126.032 182.984 126.241 182.544 126.359C182.104 126.477 181.644 126.501 181.194 126.428L180.266 126.301C179.311 126.167 178.438 125.686 177.814 124.95C177.191 124.214 176.86 123.275 176.885 122.31C176.904 121.855 177.02 121.409 177.224 121.001C177.429 120.594 177.717 120.235 178.071 119.947C178.424 119.659 178.835 119.45 179.275 119.332C179.715 119.215 180.176 119.192 180.626 119.265Z" fill="#F0516D"/>
<path d="M105.99 80.7715L97.9806 111.146C97.739 112.069 97.7356 113.038 97.9708 113.963C98.2059 114.888 98.6719 115.737 99.3251 116.433C99.9782 117.128 100.797 117.647 101.705 117.939C102.613 118.232 103.581 118.289 104.517 118.106L135.588 112.045C136.574 111.848 137.489 111.392 138.239 110.722C138.989 110.053 139.546 109.195 139.853 108.238C140.16 107.281 140.206 106.259 139.985 105.279C139.764 104.298 139.285 103.394 138.598 102.661L115.56 78.3297C114.869 77.5955 113.994 77.0598 113.026 76.7783C112.058 76.4968 111.032 76.4798 110.055 76.7291C109.079 76.9783 108.186 77.4847 107.471 78.1956C106.756 78.9065 106.245 79.796 105.99 80.7715Z" fill="#F0516D"/>
<path d="M104.454 115.658C103.884 115.762 103.296 115.719 102.747 115.534C102.197 115.35 101.703 115.029 101.31 114.603C100.905 114.192 100.613 113.684 100.46 113.127C100.308 112.571 100.301 111.984 100.44 111.424L108.468 80.9686C108.607 80.4364 108.894 79.9548 109.297 79.58C109.7 79.2051 110.2 78.9525 110.741 78.8516C111.312 78.7496 111.9 78.7934 112.449 78.9789C112.999 79.1645 113.493 79.4857 113.885 79.913L137.004 104.273C137.409 104.684 137.703 105.192 137.856 105.748C138.009 106.304 138.017 106.891 137.879 107.451C137.739 107.982 137.451 108.463 137.049 108.837C136.646 109.21 136.146 109.462 135.606 109.563L104.454 115.658Z" fill="white"/>
<path d="M112.249 88.1194L114.227 87.7308C114.865 87.6277 115.519 87.7644 116.063 88.1145C116.607 88.4646 117.002 89.0035 117.173 89.6274L117.881 92.278C117.907 92.3753 117.929 92.4741 117.944 92.5738L119.203 100.92C119.301 101.482 119.173 102.06 118.847 102.528C118.522 102.996 118.024 103.317 117.463 103.42C116.875 103.517 116.271 103.411 115.752 103.117C115.232 102.824 114.829 102.362 114.609 101.807L111.396 93.873C111.357 93.7805 111.324 93.6856 111.298 93.5888L110.567 90.9324C110.472 90.6371 110.441 90.3249 110.476 90.0167C110.511 89.7085 110.612 89.4114 110.771 89.1451C110.93 88.8789 111.144 88.6497 111.399 88.4728C111.654 88.2959 111.944 88.1754 112.249 88.1194ZM117.846 105.682L118.385 105.577C118.957 105.478 119.546 105.597 120.034 105.911C120.523 106.224 120.876 106.71 121.024 107.271C121.106 107.532 121.132 107.808 121.1 108.08C121.068 108.352 120.979 108.614 120.839 108.85C120.699 109.085 120.51 109.288 120.287 109.446C120.063 109.603 119.808 109.712 119.539 109.765L119 109.869C118.429 109.969 117.841 109.851 117.353 109.538C116.864 109.226 116.51 108.742 116.361 108.182C116.279 107.92 116.253 107.644 116.285 107.371C116.317 107.099 116.406 106.837 116.546 106.601C116.686 106.365 116.874 106.161 117.098 106.003C117.322 105.845 117.577 105.735 117.846 105.682Z" fill="#F0516D"/>
</svg>
