<svg width="223" height="217" viewBox="0 0 223 217" fill="none" xmlns="http://www.w3.org/2000/svg">
<path d="M207.297 101.967C207.813 99.0114 208.641 96.0884 209.233 93.0776C210.305 87.2652 210.388 81.3137 209.48 75.4735C207.754 64.2663 203.298 53.6555 196.505 44.576C189.277 34.8801 178.407 27.0268 166.726 29.9937C154.573 33.0648 144.285 42.4372 132.467 46.7148C112.45 53.9538 92.1857 40.759 72.0151 41.2307C54.5975 41.6091 36.3244 47.861 24.8516 63.3207C20.1682 69.633 16.9051 78.1279 18.0129 86.4857C19.3675 96.6697 26.8423 104.419 32.4142 111.954C40.9585 123.504 44.1941 136.084 37.0044 149.564C32.1455 158.701 25.6084 166.773 26.1733 178.12C27.0782 196.272 43.8376 207.235 57.6576 212.121C71.697 217.09 87.6393 217.606 101.596 212.012C113.996 207.021 122.65 196.108 133.953 189.143C143.861 183.005 155.569 180.436 167.137 181.86C179.082 183.286 191.668 185.798 203.212 180.648C214.257 175.712 219.489 162.523 219.9 149.882C220.133 143.575 219.182 137.281 217.098 131.324C214.536 124.162 208.871 118.573 207.275 110.978C206.704 108.001 206.711 104.941 207.297 101.967Z" fill="#743698"/>
<path opacity="0.7" d="M207.297 101.967C207.813 99.0114 208.641 96.0884 209.233 93.0776C210.305 87.2652 210.388 81.3137 209.48 75.4735C207.754 64.2663 203.298 53.6555 196.505 44.576C189.277 34.8801 178.407 27.0268 166.726 29.9937C154.573 33.0648 144.285 42.4372 132.467 46.7148C112.45 53.9538 92.1857 40.759 72.0151 41.2307C54.5975 41.6091 36.3244 47.861 24.8516 63.3207C20.1682 69.633 16.9051 78.1279 18.0129 86.4857C19.3675 96.6697 26.8423 104.419 32.4142 111.954C40.9585 123.504 44.1941 136.084 37.0044 149.564C32.1455 158.701 25.6084 166.773 26.1733 178.12C27.0782 196.272 43.8376 207.235 57.6576 212.121C71.697 217.09 87.6393 217.606 101.596 212.012C113.996 207.021 122.65 196.108 133.953 189.143C143.861 183.005 155.569 180.436 167.137 181.86C179.082 183.286 191.668 185.798 203.212 180.648C214.257 175.712 219.489 162.523 219.9 149.882C220.133 143.575 219.182 137.281 217.098 131.324C214.536 124.162 208.871 118.573 207.275 110.978C206.704 108.001 206.711 104.941 207.297 101.967Z" fill="white"/>
<path d="M175.851 13.2782C175.884 13.2782 176.866 10.6897 176.91 10.5361C177.409 8.54539 177.195 4.40488 175.265 3.19289C174.935 3.00626 174.57 2.88998 174.193 2.85139C173.816 2.8128 173.435 2.85273 173.075 2.96867C172.714 3.08461 172.381 3.27403 172.097 3.525C171.814 3.77597 171.585 4.08303 171.426 4.42682C170.707 5.88559 171.212 7.82149 171.903 9.19252C172.681 10.7719 175.851 13.2727 175.851 13.2782Z" fill="#743698"/>
<path d="M221.353 32.2588C219.747 30.6135 215.661 31.2935 213.824 32.2094C213.665 32.2862 211.323 33.8053 211.356 33.8546L211.389 33.8875C210.747 33.9917 210.051 34.1069 209.299 34.2495C207.912 34.5292 206.343 34.8527 204.665 35.3463C202.847 35.828 201.059 36.4195 199.313 37.1177C197.35 37.8846 195.46 38.8243 193.664 39.9256L193.604 39.9694C194.042 39.4594 195.216 37.9842 195.298 37.8635C196.395 36.1251 197.492 32.1271 196.006 30.3667C195.749 30.0857 195.436 29.8613 195.088 29.7078C194.739 29.5543 194.363 29.475 193.982 29.475C193.601 29.475 193.225 29.5543 192.876 29.7078C192.528 29.8613 192.215 30.0857 191.959 30.3667C190.823 31.5294 190.697 33.5201 190.928 35.0392C191.191 36.7448 193.236 39.8872 193.401 40.1394C191.601 41.3012 189.883 42.5837 188.257 43.9783C187.303 44.79 186.37 45.6236 185.443 46.49C185.805 46.0349 186.129 45.629 186.167 45.5632C187.264 43.8248 188.361 39.8268 186.88 38.0664C186.623 37.7855 186.311 37.5611 185.962 37.4075C185.614 37.254 185.237 37.1747 184.857 37.1747C184.476 37.1747 184.099 37.254 183.751 37.4075C183.402 37.5611 183.09 37.7855 182.833 38.0664C181.698 39.2291 181.572 41.2253 181.802 42.7389C182.032 44.2525 183.727 46.9891 184.182 47.6746L183.129 48.6672C181.445 50.2686 179.773 51.8755 178.084 53.4C177.491 53.9485 176.883 54.4475 176.279 54.9575C176.603 54.5517 176.872 54.2117 176.91 54.1569C178.007 52.4184 179.104 48.4205 177.618 46.6546C177.363 46.3718 177.051 46.1453 176.704 45.9894C176.357 45.8335 175.981 45.7517 175.6 45.7491C175.219 45.7465 174.842 45.8233 174.493 45.9744C174.143 46.1256 173.829 46.3479 173.57 46.6271C172.441 47.7898 172.309 49.786 172.539 51.2996C172.77 52.8132 174.305 55.2866 174.843 56.1366C174.212 56.6412 173.576 57.1457 172.94 57.6064C172.495 57.908 172.09 58.2316 171.629 58.5112L170.291 59.3668C169.419 59.8768 168.525 60.4088 167.664 60.8914C167.066 61.2259 166.49 61.533 165.914 61.8511C166.512 61.3027 167.658 60.2607 167.746 60.162C168.881 58.7545 169.636 57.0798 169.94 55.2975C170.074 55.1478 170.191 54.9842 170.291 54.8095C170.491 54.4861 170.622 54.1245 170.675 53.7478C170.729 53.371 170.703 52.9874 170.6 52.6211C170.496 52.2549 170.318 51.9141 170.076 51.6205C169.834 51.3269 169.534 51.0869 169.194 50.9157C167.609 50.1863 165.174 51.2228 163.485 52.4239C163.556 51.2558 163.523 50.5373 163.523 50.5373L163.079 50.5812L163.403 49.8079C163.622 49.3253 163.787 48.7879 163.979 48.2724C164.406 47.0659 164.779 45.821 165.13 44.5651C165.925 44.949 168.761 46.2926 170.302 46.3475C171.843 46.4023 173.801 46.0513 174.826 44.79C175.074 44.501 175.26 44.1635 175.37 43.7989C175.481 43.4343 175.514 43.0506 175.468 42.6724C175.423 42.2942 175.298 41.9297 175.104 41.6022C174.909 41.2746 174.648 40.9913 174.338 40.7701C172.419 39.5088 168.569 41.0498 166.967 42.3331C166.869 42.4153 165.821 43.4683 165.262 44.0551C165.465 43.2983 165.673 42.5415 165.854 41.7627C166.375 39.5307 166.836 37.2493 167.307 34.9789C167.45 34.2824 167.604 33.5914 167.752 32.8949C168.031 33.0375 171.371 34.7047 173.093 34.765C174.629 34.8198 176.592 34.4689 177.618 33.2075C177.865 32.9186 178.05 32.5815 178.16 32.2174C178.27 31.8534 178.303 31.4704 178.257 31.0929C178.211 30.7154 178.087 30.3515 177.893 30.0245C177.699 29.6974 177.439 29.4143 177.129 29.1931C175.21 27.9263 171.36 29.4673 169.759 30.7561C169.638 30.8493 168.114 32.3629 167.779 32.7688C168.103 31.2442 168.448 29.7251 168.843 28.2389C169.367 26.2344 170.023 24.2668 170.806 22.3489C170.938 22.4147 174.415 24.1697 176.181 24.23C177.711 24.2903 179.68 23.9339 180.705 22.6725C180.952 22.3833 181.136 22.0458 181.246 21.6816C181.356 21.3173 181.388 20.9342 181.342 20.5567C181.296 20.1791 181.171 19.8154 180.976 19.4885C180.782 19.1617 180.521 18.8789 180.212 18.6581C178.292 17.3913 174.448 18.9323 172.846 20.2211C172.72 20.3198 171.108 21.9486 170.834 22.2667C170.883 22.157 170.916 22.0363 170.965 21.9267C171.798 20.0122 172.802 18.1767 173.965 16.4425C174.596 15.4828 175.248 14.5944 175.907 13.7498C176.521 14.1447 179.345 15.9106 180.93 16.1464C182.515 16.3822 184.44 16.2287 185.597 15.0934C185.875 14.8331 186.095 14.5178 186.245 14.1675C186.394 13.8172 186.469 13.4397 186.464 13.0589C186.459 12.6782 186.376 12.3026 186.218 11.956C186.06 11.6095 185.832 11.2996 185.548 11.0462C183.782 9.57642 179.789 10.6897 178.056 11.792C177.963 11.8468 177.069 12.5653 176.411 13.0917C176.713 12.7188 177.014 12.324 177.31 11.9675C178.407 10.6294 179.504 9.47222 180.502 8.45765C181.051 7.90924 181.599 7.36083 182.076 6.90565C182.882 6.97694 186.123 7.22373 187.61 6.7137C189.096 6.20368 190.768 5.17267 191.268 3.62614C191.394 3.26739 191.445 2.88615 191.417 2.50669C191.388 2.12722 191.281 1.75784 191.102 1.42203C190.923 1.08623 190.676 0.791353 190.377 0.55617C190.078 0.320987 189.733 0.150643 189.365 0.0559772C187.116 -0.43211 184.083 2.3977 183.052 4.16907C182.965 4.32262 181.851 6.88371 181.89 6.91113H181.939C181.456 7.34986 180.946 7.83246 180.398 8.36442C179.389 9.36254 178.265 10.4978 177.108 11.8194C175.86 13.2274 174.695 14.707 173.62 16.2506C172.408 17.9815 171.353 19.8168 170.466 21.7347L170.433 21.806C170.521 21.1369 170.691 19.2614 170.686 19.1133C170.642 17.0622 169.347 13.1246 167.143 12.4665C166.775 12.3707 166.391 12.3524 166.016 12.4127C165.641 12.473 165.282 12.6107 164.963 12.817C164.644 13.0232 164.371 13.2936 164.162 13.6109C163.953 13.9282 163.812 14.2855 163.748 14.6602C163.447 16.2506 164.439 17.9836 165.47 19.1243C166.627 20.4076 170.071 21.8663 170.346 22.0144C169.487 23.9735 168.763 25.989 168.179 28.0469C167.828 29.248 167.516 30.4654 167.214 31.6939C167.269 31.1126 167.313 30.5971 167.307 30.5203C167.264 28.4692 165.969 24.5316 163.765 23.8735C163.397 23.7786 163.014 23.7609 162.64 23.8216C162.265 23.8824 161.907 24.0202 161.589 24.2264C161.27 24.4326 160.998 24.7026 160.789 25.0195C160.58 25.3364 160.439 25.6931 160.375 26.0672C160.068 27.6576 161.066 29.3906 162.092 30.5312C163.118 31.6719 166.046 33.0101 166.819 33.3556C166.71 33.8272 166.594 34.2934 166.485 34.765C165.964 37.0299 165.459 39.2949 164.889 41.494C164.691 42.2728 164.467 43.0296 164.247 43.7864C164.291 43.2764 164.324 42.8376 164.324 42.7718C164.28 40.7207 162.986 36.7831 160.781 36.1251C160.414 36.0301 160.031 36.0124 159.656 36.0732C159.282 36.1339 158.924 36.2717 158.605 36.4779C158.287 36.6841 158.014 36.9542 157.806 37.271C157.597 37.5879 157.456 37.9446 157.392 38.3187C157.085 39.9146 158.078 41.6476 159.109 42.7883C160.14 43.929 162.778 45.1355 163.693 45.5303C163.447 46.3036 163.194 47.0714 162.915 47.8062C162.717 48.3053 162.558 48.7989 162.328 49.287L161.697 50.7019C161.209 50.7841 160.644 50.8938 160.014 51.0364C159.849 48.9689 159.076 46.4462 157.502 45.7003C157.151 45.5498 156.774 45.4739 156.392 45.4777C156.011 45.4814 155.635 45.5646 155.287 45.722C154.94 45.8794 154.629 46.1076 154.375 46.3918C154.121 46.6761 153.929 47.0103 153.811 47.373C153.263 48.9031 153.992 50.7677 154.836 52.0455C154.96 52.2395 155.099 52.4229 155.253 52.5939C152.558 53.6931 150.135 55.3661 148.151 57.4967C142.464 63.8583 142.892 73.5213 142.892 73.5213C142.892 73.5213 150.959 72.9729 156.69 68.0372C158.451 67.2036 160.726 66.0958 163.331 64.6973C164.308 64.1818 165.339 63.6005 166.392 63.0027C166.671 63.3482 168.936 66.1561 170.444 66.9184C171.815 67.6149 173.735 68.1139 175.205 67.401C175.549 67.2423 175.856 67.0139 176.108 66.7303C176.359 66.4467 176.549 66.1141 176.666 65.7533C176.782 65.3926 176.823 65.0116 176.785 64.6345C176.746 64.2573 176.63 63.8922 176.444 63.5621C175.232 61.6098 171.091 61.4014 169.101 61.9169C168.986 61.9498 167.746 62.4105 166.967 62.7121C167.395 62.4653 167.817 62.2295 168.256 61.9662C169.128 61.4562 169.984 60.9243 170.905 60.3539L172.227 59.471C172.671 59.1858 173.11 58.8293 173.554 58.5058C174.574 57.738 175.572 56.9044 176.559 56.0489C177.009 56.8112 178.638 59.4929 179.888 60.3868C181.138 61.2807 182.97 62.0704 184.522 61.5878C184.888 61.4832 185.229 61.3033 185.522 61.0597C185.815 60.8162 186.054 60.5142 186.223 60.1731C186.393 59.8321 186.49 59.4594 186.508 59.0788C186.525 58.6983 186.464 58.3182 186.326 57.9628C185.427 55.8514 181.363 55.0124 179.323 55.2208C179.191 55.2208 177.744 55.5334 176.948 55.7143C177.535 55.1934 178.128 54.6724 178.709 54.1294C180.354 52.55 181.999 50.9048 183.645 49.2705C184.149 48.766 184.659 48.2724 185.164 47.7788C185.317 48.0475 187.187 51.2832 188.591 52.2868C189.836 53.1807 191.673 53.9649 193.22 53.4823C193.586 53.3781 193.926 53.1989 194.22 52.9559C194.513 52.713 194.752 52.4117 194.922 52.0712C195.092 51.7307 195.19 51.3585 195.208 50.9783C195.227 50.5981 195.166 50.2182 195.03 49.8628C194.125 47.7459 190.094 46.9123 188.021 47.1207C187.867 47.1207 185.783 47.5704 185.279 47.7075C186.376 46.6107 187.516 45.5139 188.663 44.5212C190.208 43.1366 191.842 41.8543 193.554 40.6824C193.626 40.8085 195.562 44.1922 196.998 45.2177C198.243 46.1116 200.081 46.9014 201.627 46.4133C201.993 46.3091 202.334 46.1298 202.627 45.8869C202.92 45.6439 203.159 45.3426 203.329 45.0022C203.499 44.6617 203.597 44.2895 203.615 43.9093C203.634 43.5291 203.573 43.1492 203.437 42.7938C202.532 40.6769 198.474 39.8433 196.428 40.0517C196.269 40.0517 194.026 40.5398 193.62 40.6549C193.724 40.5836 193.818 40.5069 193.916 40.4411C195.665 39.3131 197.512 38.344 199.433 37.5454C200.486 37.0903 201.517 36.7119 202.532 36.3718C202.828 37.0354 204.21 40.0681 205.406 41.1375C206.601 42.2069 208.285 43.1447 209.875 42.8376C210.251 42.7741 210.61 42.6329 210.928 42.423C211.246 42.2132 211.517 41.9392 211.723 41.6188C211.93 41.2983 212.067 40.9383 212.127 40.5618C212.186 40.1853 212.166 39.8005 212.069 39.432C211.4 37.2383 207.457 35.955 205.406 35.9221C205.29 35.9221 204.155 36.0209 203.327 36.1141C203.788 35.966 204.259 35.8015 204.704 35.6699C206.349 35.1653 207.923 34.8089 209.305 34.5018C210.089 34.3317 210.802 34.1946 211.498 34.0795C212.129 34.5785 214.701 36.5748 216.22 36.9696C217.739 37.3645 219.703 37.4248 220.975 36.4212C221.3 36.1923 221.572 35.8954 221.77 35.5511C221.969 35.2069 222.091 34.8235 222.127 34.4275C222.163 34.0315 222.112 33.6325 221.979 33.258C221.845 32.8835 221.632 32.5425 221.353 32.2588ZM162.728 63.4579C161.533 64.0667 160.403 64.6206 159.361 65.1032C161.125 62.5439 162.338 59.6453 162.92 56.5918C163.233 56.6686 163.551 56.7344 163.869 56.7947C163.962 58.5222 165.339 61.5933 165.514 61.9882C164.56 62.5147 163.622 63.0302 162.728 63.4579Z" fill="#743698"/>
<path d="M205.158 34.1349C206.672 32.7475 208.783 29.1992 207.824 27.0933C207.653 26.7535 207.413 26.4531 207.119 26.2111C206.825 25.9691 206.485 25.7908 206.118 25.6877C205.752 25.5845 205.368 25.5587 204.992 25.6119C204.615 25.665 204.253 25.796 203.93 25.9965C202.532 26.8191 201.879 28.7057 201.703 30.2302C201.495 32.0181 202.756 35.8515 202.756 35.8515C202.756 35.8515 205.032 34.2556 205.158 34.1349Z" fill="#743698"/>
<path d="M138.746 17.0684C138.746 17.0684 127.038 28.947 126.977 43.6664C126.917 58.3858 138.494 70.3576 138.494 70.3576C138.494 70.3576 150.214 58.479 150.263 43.7651C150.312 29.0512 138.746 17.0684 138.746 17.0684Z" fill="#743698"/>
<path d="M113.009 50.7295C113.009 50.7295 112.938 60.4035 118.855 66.5512C124.772 72.6989 134.435 72.9951 134.435 72.9951C134.435 72.9951 134.512 63.3211 128.595 57.1734C122.677 51.0257 113.009 50.7295 113.009 50.7295Z" fill="#743698"/>
<g opacity="0.5">
<path d="M175.851 13.2779C175.884 13.2779 176.866 10.6894 176.91 10.5359C177.409 8.54515 177.195 4.40464 175.265 3.19264C174.935 3.00601 174.57 2.88974 174.193 2.85115C173.816 2.81255 173.435 2.85249 173.075 2.96842C172.714 3.08436 172.381 3.27379 172.097 3.52476C171.814 3.77572 171.585 4.08278 171.426 4.42657C170.707 5.88535 171.212 7.82125 171.903 9.19228C172.681 10.7717 175.851 13.2725 175.851 13.2779Z" fill="white"/>
<path d="M221.353 32.2585C219.747 30.6133 215.661 31.2933 213.824 32.2092C213.665 32.2859 211.323 33.805 211.356 33.8544L211.389 33.8873C210.747 33.9915 210.051 34.1067 209.299 34.2492C207.912 34.5289 206.343 34.8525 204.665 35.3461C202.847 35.8278 201.059 36.4193 199.313 37.1174C197.35 37.8844 195.46 38.824 193.664 39.9253L193.604 39.9692C194.042 39.4592 195.216 37.9839 195.298 37.8633C196.395 36.1248 197.492 32.1269 196.006 30.3665C195.749 30.0855 195.436 29.8611 195.088 29.7076C194.739 29.5541 194.363 29.4748 193.982 29.4748C193.601 29.4748 193.225 29.5541 192.876 29.7076C192.528 29.8611 192.215 30.0855 191.959 30.3665C190.823 31.5291 190.697 33.5199 190.928 35.039C191.191 36.7445 193.236 39.8869 193.401 40.1392C191.601 41.3009 189.883 42.5835 188.257 43.9781C187.303 44.7897 186.37 45.6233 185.443 46.4898C185.805 46.0346 186.129 45.6288 186.167 45.563C187.264 43.8245 188.361 39.8266 186.88 38.0662C186.623 37.7852 186.311 37.5608 185.962 37.4073C185.614 37.2538 185.237 37.1745 184.857 37.1745C184.476 37.1745 184.099 37.2538 183.751 37.4073C183.402 37.5608 183.09 37.7852 182.833 38.0662C181.698 39.2288 181.572 41.225 181.802 42.7387C182.032 44.2523 183.727 46.9889 184.182 47.6744L183.129 48.667C181.445 50.2684 179.773 51.8752 178.084 53.3998C177.491 53.9482 176.883 54.4473 176.279 54.9573C176.603 54.5515 176.872 54.2115 176.91 54.1566C178.007 52.4181 179.104 48.4202 177.618 46.6543C177.363 46.3716 177.051 46.1451 176.704 45.9892C176.357 45.8333 175.981 45.7515 175.6 45.7489C175.219 45.7463 174.842 45.823 174.493 45.9742C174.143 46.1254 173.829 46.3477 173.57 46.6269C172.441 47.7895 172.309 49.7858 172.539 51.2994C172.77 52.813 174.305 55.2863 174.843 56.1364C174.212 56.6409 173.576 57.1455 172.94 57.6061C172.495 57.9077 172.09 58.2313 171.629 58.511L170.291 59.3665C169.419 59.8766 168.525 60.4085 167.664 60.8911C167.066 61.2256 166.49 61.5328 165.914 61.8508C166.512 61.3024 167.658 60.2604 167.746 60.1617C168.881 58.7542 169.636 57.0795 169.94 55.2973C170.074 55.1475 170.191 54.9839 170.291 54.8092C170.491 54.4858 170.622 54.1243 170.675 53.7475C170.729 53.3708 170.703 52.9871 170.6 52.6209C170.496 52.2547 170.318 51.9139 170.076 51.6203C169.834 51.3267 169.534 51.0867 169.194 50.9155C167.609 50.1861 165.174 51.2226 163.485 52.4236C163.556 51.2555 163.523 50.5371 163.523 50.5371L163.079 50.581L163.403 49.8077C163.622 49.3251 163.787 48.7877 163.979 48.2721C164.406 47.0656 164.779 45.8207 165.13 44.5649C165.925 44.9488 168.761 46.2924 170.302 46.3472C171.843 46.4021 173.801 46.0511 174.826 44.7897C175.074 44.5008 175.26 44.1632 175.37 43.7986C175.481 43.434 175.514 43.0504 175.468 42.6722C175.423 42.294 175.298 41.9295 175.104 41.6019C174.909 41.2744 174.648 40.991 174.338 40.7699C172.419 39.5085 168.569 41.0495 166.967 42.3328C166.869 42.4151 165.821 43.468 165.262 44.0549C165.465 43.298 165.673 42.5412 165.854 41.7625C166.375 39.5305 166.836 37.2491 167.307 34.9786C167.45 34.2821 167.604 33.5911 167.752 32.8947C168.031 33.0373 171.371 34.7044 173.093 34.7648C174.629 34.8196 176.592 34.4686 177.618 33.2073C177.865 32.9184 178.05 32.5812 178.16 32.2172C178.27 31.8532 178.303 31.4702 178.257 31.0927C178.211 30.7151 178.087 30.3513 177.893 30.0242C177.699 29.6972 177.439 29.414 177.129 29.1929C175.21 27.9261 171.36 29.4671 169.759 30.7559C169.638 30.8491 168.114 32.3627 167.779 32.7685C168.103 31.2439 168.448 29.7248 168.843 28.2386C169.367 26.2341 170.023 24.2665 170.806 22.3487C170.938 22.4145 174.415 24.1694 176.181 24.2297C177.711 24.2901 179.68 23.9336 180.705 22.6723C180.952 22.383 181.136 22.0456 181.246 21.6813C181.356 21.3171 181.388 20.934 181.342 20.5564C181.296 20.1789 181.171 19.8151 180.976 19.4883C180.782 19.1614 180.521 18.8786 180.212 18.6579C178.292 17.391 174.448 18.9321 172.846 20.2209C172.72 20.3196 171.108 21.9484 170.834 22.2664C170.883 22.1567 170.916 22.0361 170.965 21.9264C171.798 20.012 172.802 18.1765 173.965 16.4423C174.596 15.4826 175.248 14.5941 175.907 13.7496C176.521 14.1444 179.345 15.9103 180.93 16.1462C182.515 16.382 184.44 16.2284 185.597 15.0932C185.875 14.8329 186.095 14.5175 186.245 14.1672C186.394 13.817 186.469 13.4394 186.464 13.0587C186.459 12.6779 186.376 12.3023 186.218 11.9558C186.06 11.6093 185.832 11.2994 185.548 11.0459C183.782 9.57617 179.789 10.6894 178.056 11.7918C177.963 11.8466 177.069 12.565 176.411 13.0915C176.713 12.7186 177.014 12.3237 177.31 11.9672C178.407 10.6291 179.504 9.47197 180.502 8.45741C181.051 7.909 181.599 7.36059 182.076 6.90541C182.882 6.9767 186.123 7.22348 187.61 6.71346C189.096 6.20343 190.768 5.17242 191.268 3.6259C191.394 3.26714 191.445 2.88591 191.417 2.50644C191.388 2.12698 191.281 1.75759 191.102 1.42179C190.923 1.08598 190.676 0.791109 190.377 0.555926C190.078 0.320743 189.733 0.150399 189.365 0.055733C187.116 -0.432354 184.083 2.39745 183.052 4.16883C182.965 4.32238 181.851 6.88347 181.89 6.91089H181.939C181.456 7.34962 180.946 7.83222 180.398 8.36418C179.389 9.36229 178.265 10.4975 177.108 11.8192C175.86 13.2272 174.695 14.7068 173.62 16.2503C172.408 17.9812 171.353 19.8165 170.466 21.7345L170.433 21.8058C170.521 21.1367 170.691 19.2611 170.686 19.1131C170.642 17.062 169.347 13.1244 167.143 12.4663C166.775 12.3705 166.391 12.3521 166.016 12.4125C165.641 12.4728 165.282 12.6104 164.963 12.8167C164.644 13.023 164.371 13.2933 164.162 13.6107C163.953 13.928 163.812 14.2853 163.748 14.66C163.447 16.2504 164.439 17.9833 165.47 19.124C166.627 20.4073 170.071 21.8661 170.346 22.0142C169.487 23.9732 168.763 25.9888 168.179 28.0467C167.828 29.2477 167.516 30.4652 167.214 31.6936C167.269 31.1123 167.313 30.5968 167.307 30.52C167.264 28.469 165.969 24.5314 163.765 23.8733C163.397 23.7783 163.014 23.7607 162.64 23.8214C162.265 23.8821 161.907 24.02 161.589 24.2261C161.27 24.4323 160.998 24.7024 160.789 25.0193C160.58 25.3361 160.439 25.6929 160.375 26.0669C160.068 27.6573 161.066 29.3903 162.092 30.531C163.118 31.6717 166.046 33.0098 166.819 33.3553C166.71 33.827 166.594 34.2931 166.485 34.7648C165.964 37.0297 165.459 39.2946 164.889 41.4938C164.691 42.2725 164.467 43.0293 164.247 43.7861C164.291 43.2761 164.324 42.8374 164.324 42.7716C164.28 40.7205 162.986 36.7829 160.781 36.1248C160.414 36.0299 160.031 36.0122 159.656 36.0729C159.282 36.1337 158.924 36.2715 158.605 36.4777C158.287 36.6839 158.014 36.9539 157.806 37.2708C157.597 37.5876 157.456 37.9444 157.392 38.3185C157.085 39.9143 158.078 41.6473 159.109 42.788C160.14 43.9287 162.778 45.1352 163.693 45.5301C163.447 46.3033 163.194 47.0711 162.915 47.806C162.717 48.3051 162.558 48.7986 162.328 49.2867L161.697 50.7016C161.209 50.7839 160.644 50.8936 160.014 51.0361C159.849 48.9686 159.076 46.4459 157.502 45.7001C157.151 45.5495 156.774 45.4737 156.392 45.4774C156.011 45.4811 155.635 45.5644 155.287 45.7218C154.94 45.8792 154.629 46.1073 154.375 46.3916C154.121 46.6759 153.929 47.01 153.811 47.3727C153.263 48.9028 153.992 50.7674 154.836 52.0452C154.96 52.2393 155.099 52.4227 155.253 52.5936C152.558 53.6929 150.135 55.3659 148.151 57.4964C142.464 63.858 142.892 73.521 142.892 73.521C142.892 73.521 150.959 72.9726 156.69 68.0369C158.451 67.2033 160.726 66.0955 163.331 64.6971C164.308 64.1816 165.339 63.6003 166.392 63.0025C166.671 63.348 168.936 66.1559 170.444 66.9182C171.815 67.6146 173.735 68.1137 175.205 67.4008C175.549 67.2421 175.856 67.0137 176.108 66.7301C176.359 66.4465 176.549 66.1138 176.666 65.7531C176.782 65.3923 176.823 65.0114 176.785 64.6342C176.746 64.2571 176.63 63.8919 176.444 63.5619C175.232 61.6095 171.091 61.4011 169.101 61.9166C168.986 61.9495 167.746 62.4102 166.967 62.7118C167.395 62.4651 167.817 62.2292 168.256 61.966C169.128 61.456 169.984 60.924 170.905 60.3537L172.227 59.4707C172.671 59.1855 173.11 58.8291 173.554 58.5055C174.574 57.7377 175.572 56.9042 176.559 56.0486C177.009 56.8109 178.638 59.4927 179.888 60.3866C181.138 61.2805 182.97 62.0702 184.522 61.5876C184.888 61.4829 185.229 61.3031 185.522 61.0595C185.815 60.8159 186.054 60.514 186.223 60.1729C186.393 59.8318 186.49 59.4591 186.508 59.0786C186.525 58.698 186.464 58.3179 186.326 57.9626C185.427 55.8512 181.363 55.0121 179.323 55.2205C179.191 55.2205 177.744 55.5331 176.948 55.7141C177.535 55.1931 178.128 54.6721 178.709 54.1292C180.354 52.5498 181.999 50.9045 183.645 49.2703C184.149 48.7657 184.659 48.2721 185.164 47.7786C185.317 48.0473 187.187 51.2829 188.591 52.2865C189.836 53.1804 191.673 53.9647 193.22 53.4821C193.586 53.3779 193.926 53.1986 194.22 52.9557C194.513 52.7127 194.752 52.4114 194.922 52.071C195.092 51.7305 195.19 51.3583 195.208 50.9781C195.227 50.5979 195.166 50.218 195.03 49.8625C194.125 47.7457 190.094 46.9121 188.021 47.1205C187.867 47.1205 185.783 47.5702 185.279 47.7073C186.376 46.6105 187.516 45.5136 188.663 44.521C190.208 43.1364 191.842 41.854 193.554 40.6821C193.626 40.8083 195.562 44.192 196.998 45.2175C198.243 46.1114 200.081 46.9011 201.627 46.413C201.993 46.3089 202.334 46.1296 202.627 45.8866C202.92 45.6437 203.159 45.3424 203.329 45.0019C203.499 44.6614 203.597 44.2892 203.615 43.909C203.634 43.5288 203.573 43.1489 203.437 42.7935C202.532 40.6766 198.474 39.843 196.428 40.0514C196.269 40.0514 194.026 40.5395 193.62 40.6547C193.724 40.5834 193.818 40.5066 193.916 40.4408C195.665 39.3129 197.512 38.3438 199.433 37.5452C200.486 37.09 201.517 36.7116 202.532 36.3716C202.828 37.0352 204.21 40.0679 205.406 41.1373C206.601 42.2067 208.285 43.1445 209.875 42.8374C210.251 42.7738 210.61 42.6326 210.928 42.4228C211.246 42.2129 211.517 41.939 211.723 41.6185C211.93 41.2981 212.067 40.9381 212.127 40.5615C212.186 40.185 212.166 39.8002 212.069 39.4317C211.4 37.2381 207.457 35.9548 205.406 35.9219C205.29 35.9219 204.155 36.0206 203.327 36.1138C203.788 35.9658 204.259 35.8012 204.704 35.6696C206.349 35.1651 207.923 34.8086 209.305 34.5015C210.089 34.3315 210.802 34.1944 211.498 34.0792C212.129 34.5783 214.701 36.5745 216.22 36.9694C217.739 37.3642 219.703 37.4245 220.975 36.421C221.3 36.192 221.572 35.8951 221.77 35.5509C221.969 35.2066 222.091 34.8232 222.127 34.4273C222.163 34.0313 222.112 33.6322 221.979 33.2577C221.845 32.8833 221.632 32.5423 221.353 32.2585ZM162.728 63.4577C161.533 64.0664 160.403 64.6203 159.361 65.1029C161.125 62.5437 162.338 59.645 162.92 56.5916C163.233 56.6683 163.551 56.7341 163.869 56.7945C163.962 58.522 165.339 61.5931 165.514 61.9879C164.56 62.5144 163.622 63.0299 162.728 63.4577Z" fill="white"/>
<path d="M205.158 34.1347C206.672 32.7472 208.783 29.199 207.824 27.0931C207.653 26.7533 207.413 26.4528 207.119 26.2108C206.825 25.9688 206.485 25.7906 206.118 25.6874C205.752 25.5843 205.368 25.5584 204.992 25.6116C204.615 25.6648 204.253 25.7958 203.93 25.9963C202.532 26.8189 201.879 28.7054 201.703 30.23C201.495 32.0178 202.756 35.8512 202.756 35.8512C202.756 35.8512 205.032 34.2553 205.158 34.1347Z" fill="white"/>
<path d="M138.746 17.0682C138.746 17.0682 127.037 28.9468 126.977 43.6662C126.916 58.3855 138.493 70.3574 138.493 70.3574C138.493 70.3574 150.213 58.4788 150.262 43.7649C150.312 29.051 138.746 17.0682 138.746 17.0682Z" fill="white"/>
<path d="M113.009 50.7293C113.009 50.7293 112.938 60.4033 118.855 66.551C124.772 72.6987 134.435 72.9948 134.435 72.9948C134.435 72.9948 134.512 63.3208 128.595 57.1731C122.677 51.0254 113.009 50.7293 113.009 50.7293Z" fill="white"/>
</g>
<path d="M146.106 57.0038L145.733 56.5212L138.845 61.9285L138.9 50.0335L148.47 41.566L148.064 41.1108L138.9 49.2163L138.96 36.1532L145.404 30.5703L145.009 30.1096L138.96 35.3415L139.042 17.0684H138.434L138.313 43.99L130.734 32.9066L130.229 33.2466L138.264 44.9881L138.313 44.9552L138.264 56.1428L129.171 47.966L128.765 48.4211L138.258 56.9599V56.9544L138.203 70.3576L138.812 70.3631L138.845 62.7018L146.106 57.0038Z" fill="white"/>
<path d="M163.743 50.6746L163.293 50.2688L153.158 61.599L154.079 54.2777L153.476 54.2064L152.445 62.3887H152.451L148.376 66.946L147.608 60.1841L147.005 60.2499L147.833 67.5548L142.689 73.3021L143.144 73.708L146.067 70.4449L151.348 70.763L151.381 70.1542L146.583 69.8636L150.965 64.9663L158.319 64.9717V64.363L151.507 64.352L156.328 58.9666L161.214 59.027L161.225 58.4182L156.871 58.3634L163.743 50.6746Z" fill="white"/>
<path d="M132.329 64.385L131.726 64.3027L131.079 69.0684L126.522 64.3301L127.081 56.9979L126.472 56.954L125.957 63.7433L120.939 58.5334L121.367 53.6635L120.758 53.6142L120.38 57.9521L113.228 50.5211L112.79 50.9434L123.33 61.8952L116.102 60.4254L115.981 61.0232L124.065 62.663V62.652L128.304 67.0612L121.504 67.319L121.526 67.9277L128.869 67.648L134.216 73.2035L134.655 72.7812L131.622 69.6278L132.329 64.385Z" fill="white"/>
<path d="M136.777 209.823L206.804 183.549L207.309 177.95L137.797 204.219L136.777 209.823Z" fill="#743698" stroke="#272727" stroke-width="1.13593" stroke-linecap="round" stroke-linejoin="round"/>
<path d="M124.986 116.944C123.756 116.935 122.566 116.501 121.619 115.716C120.429 114.734 119.647 113.344 119.425 111.817C119.398 111.544 119.476 111.271 119.644 111.054C119.812 110.837 120.056 110.693 120.327 110.652C120.598 110.61 120.875 110.674 121.1 110.831C121.325 110.987 121.482 111.225 121.537 111.493C121.68 112.495 122.19 113.408 122.968 114.054C123.307 114.346 123.704 114.561 124.134 114.684C124.564 114.807 125.015 114.836 125.457 114.767C125.898 114.699 126.32 114.536 126.692 114.288C127.064 114.041 127.379 113.716 127.613 113.336C127.775 113.112 128.017 112.959 128.288 112.909C128.56 112.86 128.84 112.917 129.07 113.07C129.301 113.222 129.463 113.457 129.524 113.727C129.584 113.996 129.538 114.279 129.396 114.515C128.995 115.143 128.466 115.678 127.843 116.086C127.22 116.493 126.517 116.763 125.781 116.879C125.519 116.922 125.253 116.945 124.986 116.944Z" fill="#272727"/>
<path d="M114.879 120.065C112.175 120.065 109.757 117.915 109.302 114.943C109.28 114.804 109.285 114.663 109.318 114.527C109.351 114.391 109.411 114.263 109.493 114.15C109.576 114.036 109.68 113.941 109.799 113.868C109.919 113.795 110.052 113.747 110.19 113.725C110.47 113.688 110.753 113.761 110.981 113.927C111.208 114.094 111.363 114.341 111.413 114.619C111.731 116.709 113.491 118.178 115.329 117.91C115.77 117.838 116.19 117.673 116.563 117.426C116.935 117.179 117.251 116.856 117.489 116.478C117.651 116.254 117.893 116.102 118.164 116.052C118.436 116.002 118.716 116.06 118.947 116.212C119.177 116.364 119.339 116.6 119.4 116.869C119.461 117.139 119.415 117.421 119.272 117.657C118.871 118.285 118.342 118.821 117.719 119.228C117.096 119.636 116.393 119.906 115.658 120.021C115.4 120.057 115.139 120.072 114.879 120.065Z" fill="#272727"/>
<path d="M105.632 123.612C104.403 123.604 103.213 123.172 102.265 122.39C101.076 121.407 100.294 120.017 100.071 118.49C100.044 118.218 100.122 117.944 100.29 117.728C100.458 117.511 100.702 117.367 100.973 117.325C101.244 117.284 101.521 117.348 101.746 117.504C101.971 117.661 102.128 117.898 102.183 118.167C102.326 119.168 102.836 120.081 103.614 120.728C103.956 121.014 104.354 121.226 104.783 121.349C105.212 121.471 105.662 121.503 106.104 121.441C106.544 121.369 106.964 121.204 107.336 120.957C107.707 120.71 108.022 120.387 108.259 120.009C108.438 119.836 108.672 119.728 108.92 119.705C109.169 119.682 109.418 119.744 109.626 119.882C109.835 120.019 109.99 120.223 110.066 120.461C110.143 120.699 110.136 120.955 110.047 121.188C109.645 121.816 109.115 122.351 108.491 122.759C107.867 123.166 107.164 123.436 106.427 123.552C106.165 123.594 105.899 123.615 105.632 123.612Z" fill="#272727"/>
<path d="M95.5253 126.509C92.8216 126.509 90.4031 124.353 89.948 121.386C89.9197 121.245 89.9204 121.099 89.9499 120.958C89.9794 120.817 90.0372 120.683 90.1198 120.565C90.2024 120.447 90.3081 120.346 90.4305 120.27C90.5529 120.193 90.6894 120.143 90.832 120.12C90.9745 120.098 91.1201 120.105 91.2599 120.141C91.3997 120.176 91.5309 120.24 91.6456 120.327C91.7603 120.415 91.856 120.524 91.9271 120.65C91.9982 120.775 92.0432 120.914 92.0593 121.057C92.3829 123.147 94.1378 124.617 95.975 124.348C96.4153 124.276 96.8355 124.112 97.2079 123.866C97.5803 123.62 97.8965 123.299 98.1358 122.922C98.2079 122.795 98.3055 122.683 98.4225 122.595C98.5394 122.507 98.6732 122.444 98.8156 122.41C98.958 122.375 99.1059 122.371 99.2502 122.396C99.3945 122.421 99.532 122.475 99.6543 122.556C99.7767 122.637 99.8811 122.741 99.9613 122.864C100.041 122.987 100.096 123.124 100.12 123.269C100.145 123.413 100.14 123.561 100.105 123.703C100.07 123.845 100.007 123.979 99.9181 124.096C99.5171 124.723 98.9877 125.259 98.3648 125.667C97.7419 126.076 97.0396 126.347 96.3041 126.465C96.0459 126.498 95.7856 126.513 95.5253 126.509Z" fill="#272727"/>
<path d="M85.177 130.622C82.4788 130.622 80.0603 128.472 79.5996 125.5C79.6163 125.251 79.7174 125.015 79.8862 124.831C80.0551 124.647 80.2816 124.526 80.5283 124.489C80.775 124.451 81.0272 124.498 81.2432 124.623C81.4592 124.748 81.6262 124.943 81.7165 125.176C82.0346 127.265 83.795 128.73 85.6321 128.466C86.0728 128.394 86.4931 128.228 86.8655 127.982C87.2379 127.735 87.5539 127.412 87.7929 127.035C87.9544 126.811 88.1963 126.658 88.468 126.609C88.7396 126.559 89.0199 126.617 89.2502 126.769C89.4805 126.921 89.6429 127.157 89.7035 127.426C89.7641 127.696 89.7181 127.978 89.5752 128.214C89.1742 128.841 88.6447 129.376 88.0217 129.784C87.3987 130.191 86.6965 130.462 85.9612 130.578C85.7012 130.611 85.4391 130.626 85.177 130.622Z" fill="#272727"/>
<path d="M75.1577 134.29C73.9279 134.283 72.7384 133.851 71.7904 133.067C70.6012 132.084 69.8195 130.695 69.5968 129.168C69.5691 128.895 69.6472 128.622 69.8151 128.405C69.983 128.188 70.2277 128.044 70.4987 128.003C70.7698 127.961 71.0464 128.025 71.2715 128.182C71.4966 128.339 71.6529 128.576 71.7082 128.844C71.8512 129.846 72.3614 130.759 73.1395 131.405C73.478 131.697 73.8757 131.912 74.3054 132.035C74.735 132.158 75.1862 132.187 75.6279 132.119C76.0696 132.05 76.4911 131.887 76.8635 131.64C77.2359 131.393 77.5501 131.067 77.7846 130.687C77.9639 130.513 78.1971 130.406 78.4456 130.383C78.6942 130.359 78.9432 130.422 79.1516 130.559C79.36 130.697 79.5153 130.901 79.5918 131.139C79.6683 131.376 79.6615 131.633 79.5724 131.866C79.1705 132.494 78.64 133.029 78.0161 133.436C77.3922 133.844 76.689 134.114 75.9529 134.23C75.6899 134.272 75.424 134.292 75.1577 134.29Z" fill="#272727"/>
<path d="M138.696 206.407L196.647 185.057" stroke="#272727" stroke-width="0.567964" stroke-linecap="round" stroke-linejoin="round"/>
<path d="M137.172 208.189L174.277 194.462" stroke="#272727" stroke-width="0.567964" stroke-linecap="round" stroke-linejoin="round"/>
<path d="M67.0024 131.828V138.447L136.777 209.823L137.797 204.219L67.0024 131.828Z" fill="#743698" stroke="#272727" stroke-width="1.13593" stroke-linecap="round" stroke-linejoin="round"/>
<path d="M68.0391 137.022L109.472 178.449" stroke="#272727" stroke-width="0.567964" stroke-linecap="round" stroke-linejoin="round"/>
<path d="M87.6118 154.812L130.816 199.036" stroke="#272727" stroke-width="0.567964" stroke-linecap="round" stroke-linejoin="round"/>
<path d="M67.0024 131.828L137.797 204.218L207.308 177.95L135.263 108.904L67.0024 131.828Z" fill="white" stroke="#272727" stroke-width="1.13593" stroke-linecap="round" stroke-linejoin="round"/>
<path d="M66.1361 130.687L0.567871 69.49L67.7319 48.5461L134.748 107.813L66.1361 130.687Z" fill="#898EDF" stroke="#272727" stroke-width="1.13593" stroke-linecap="round" stroke-linejoin="round"/>
<path d="M10.6035 69.8954L29.7979 63.9177" stroke="#272727" stroke-width="1.21052" stroke-linecap="round" stroke-linejoin="round"/>
<path d="M13.4395 72.1003L32.6339 66.1226" stroke="#272727" stroke-width="1.21052" stroke-linecap="round" stroke-linejoin="round"/>
<path d="M78.6727 132.343C78.464 132.345 78.2597 132.284 78.0859 132.168C77.8545 132.008 77.6935 131.765 77.6364 131.489C77.5792 131.213 77.6302 130.926 77.7788 130.687C78.3267 129.836 78.5379 128.812 78.3711 127.814C78.278 127.057 77.9618 126.345 77.4627 125.769C76.9636 125.193 76.3043 124.778 75.5687 124.578C75.3031 124.505 75.0758 124.333 74.9342 124.097C74.7925 123.861 74.7473 123.579 74.8081 123.31C74.8689 123.042 75.0309 122.807 75.2604 122.655C75.49 122.503 75.7693 122.445 76.0403 122.494C77.1946 122.79 78.2344 123.423 79.0267 124.313C79.819 125.203 80.3278 126.309 80.488 127.49C80.7386 129.016 80.41 130.581 79.5666 131.877C79.4658 132.021 79.3319 132.138 79.1764 132.219C79.0209 132.3 78.8481 132.343 78.6727 132.343Z" fill="#272727"/>
<path d="M88.6812 128.675C88.4725 128.676 88.2681 128.615 88.0944 128.499C87.9769 128.422 87.8758 128.322 87.7969 128.206C87.7181 128.09 87.6631 127.959 87.635 127.822C87.607 127.684 87.6065 127.542 87.6335 127.404C87.6606 127.266 87.7147 127.135 87.7927 127.018C88.3382 126.166 88.5492 125.143 88.385 124.145C88.292 123.388 87.9758 122.676 87.4767 122.1C86.9776 121.524 86.3182 121.109 85.5826 120.909C85.4391 120.885 85.302 120.832 85.1796 120.754C85.0572 120.675 84.9521 120.572 84.8707 120.452C84.7894 120.331 84.7335 120.195 84.7066 120.052C84.6796 119.909 84.682 119.762 84.7138 119.621C84.7455 119.479 84.8059 119.345 84.8912 119.227C84.9766 119.109 85.085 119.01 85.21 118.935C85.3349 118.861 85.4738 118.813 85.618 118.794C85.7622 118.775 85.9088 118.785 86.0488 118.825C87.2031 119.121 88.2428 119.754 89.0351 120.644C89.8274 121.534 90.3362 122.64 90.4964 123.821C90.747 125.347 90.4184 126.912 89.5751 128.208C89.4742 128.352 89.3404 128.469 89.1849 128.55C89.0293 128.631 88.8566 128.674 88.6812 128.675Z" fill="#272727"/>
<path d="M128.501 114.997C128.314 114.988 128.131 114.93 127.972 114.83C127.813 114.73 127.682 114.59 127.593 114.425C127.503 114.26 127.457 114.075 127.46 113.887C127.462 113.699 127.513 113.515 127.607 113.352C128.156 112.503 128.367 111.48 128.2 110.484C128.108 109.726 127.792 109.013 127.293 108.436C126.794 107.858 126.134 107.443 125.397 107.243C125.26 107.213 125.131 107.156 125.016 107.076C124.901 106.996 124.803 106.893 124.728 106.775C124.653 106.656 124.603 106.524 124.579 106.386C124.555 106.248 124.56 106.107 124.591 105.97C124.659 105.697 124.83 105.46 125.068 105.309C125.305 105.158 125.592 105.104 125.869 105.159C127.023 105.454 128.063 106.088 128.855 106.978C129.648 107.868 130.156 108.974 130.317 110.155C130.568 111.682 130.237 113.247 129.39 114.542C129.29 114.685 129.158 114.801 129.003 114.881C128.848 114.96 128.675 115 128.501 114.997Z" fill="#272727"/>
<path d="M118.378 118.107C118.169 118.108 117.965 118.047 117.791 117.931C117.674 117.854 117.573 117.755 117.494 117.638C117.415 117.522 117.36 117.391 117.332 117.254C117.304 117.116 117.303 116.974 117.33 116.836C117.357 116.698 117.411 116.567 117.49 116.45C118.035 115.599 118.246 114.575 118.082 113.577C117.989 112.82 117.673 112.108 117.173 111.532C116.674 110.956 116.015 110.541 115.279 110.341C115.136 110.317 114.999 110.265 114.876 110.186C114.754 110.107 114.649 110.005 114.568 109.884C114.486 109.763 114.43 109.627 114.403 109.485C114.376 109.342 114.379 109.195 114.411 109.053C114.442 108.911 114.503 108.777 114.588 108.659C114.673 108.541 114.782 108.442 114.907 108.367C115.032 108.293 115.171 108.245 115.315 108.226C115.459 108.207 115.606 108.218 115.746 108.257C116.901 108.552 117.941 109.185 118.734 110.075C119.526 110.965 120.034 112.072 120.193 113.253C120.444 114.779 120.115 116.344 119.272 117.641C119.171 117.784 119.037 117.901 118.882 117.982C118.726 118.064 118.553 118.106 118.378 118.107Z" fill="#272727"/>
<path d="M109.131 121.671C108.922 121.671 108.718 121.608 108.545 121.49C108.313 121.33 108.152 121.087 108.095 120.811C108.038 120.536 108.089 120.249 108.237 120.01C108.788 119.16 109.001 118.135 108.835 117.136C108.742 116.379 108.426 115.668 107.927 115.091C107.428 114.515 106.768 114.1 106.033 113.9C105.889 113.877 105.752 113.824 105.63 113.745C105.507 113.667 105.402 113.564 105.321 113.443C105.24 113.323 105.184 113.187 105.157 113.044C105.13 112.901 105.132 112.754 105.164 112.612C105.196 112.47 105.256 112.336 105.341 112.218C105.427 112.1 105.535 112.001 105.66 111.927C105.785 111.852 105.924 111.804 106.068 111.785C106.212 111.766 106.359 111.777 106.499 111.816C107.653 112.112 108.693 112.746 109.485 113.636C110.278 114.526 110.786 115.632 110.947 116.812C111.197 118.339 110.869 119.903 110.025 121.2C109.925 121.344 109.791 121.463 109.636 121.545C109.48 121.627 109.307 121.67 109.131 121.671Z" fill="#272727"/>
<path d="M99.0244 124.562C98.8161 124.56 98.6126 124.499 98.4376 124.386C98.3201 124.309 98.219 124.21 98.1402 124.094C98.0613 123.977 98.0063 123.847 97.9783 123.709C97.9502 123.571 97.9497 123.429 97.9768 123.291C98.0039 123.154 98.058 123.022 98.136 122.906C98.6814 122.054 98.8924 121.03 98.7283 120.032C98.6352 119.275 98.319 118.564 97.8199 117.987C97.3208 117.411 96.6615 116.996 95.9259 116.796C95.7615 116.796 95.5993 116.76 95.4511 116.688C95.3029 116.617 95.1725 116.514 95.0697 116.386C94.9669 116.257 94.8942 116.108 94.857 115.948C94.8199 115.787 94.8191 115.621 94.8549 115.461C94.8907 115.3 94.9621 115.15 95.0638 115.021C95.1655 114.892 95.2949 114.787 95.4425 114.715C95.5901 114.642 95.752 114.604 95.9164 114.603C96.0807 114.601 96.2433 114.637 96.392 114.707C97.5473 115.001 98.5883 115.633 99.3809 116.524C100.174 117.414 100.682 118.521 100.84 119.703C101.091 121.229 100.762 122.794 99.9183 124.09C99.8181 124.235 99.6845 124.353 99.5289 124.435C99.3734 124.517 99.2003 124.561 99.0244 124.562Z" fill="#272727"/>
<path d="M193.927 176.277L196.625 175.284" stroke="#272727" stroke-width="0.567964" stroke-linecap="round" stroke-linejoin="round"/>
<path d="M140.66 195.954L191.476 177.187" stroke="#272727" stroke-width="0.567964" stroke-linecap="round" stroke-linejoin="round"/>
<path d="M142.085 187.47L190.582 169.559" stroke="#272727" stroke-width="0.567964" stroke-linecap="round" stroke-linejoin="round"/>
<path d="M134.616 190.229L138.861 188.66" stroke="#272727" stroke-width="0.567964" stroke-linecap="round" stroke-linejoin="round"/>
<path d="M128.573 184.503L184.544 163.834" stroke="#272727" stroke-width="0.567964" stroke-linecap="round" stroke-linejoin="round"/>
<path d="M122.535 178.783L178.5 158.114" stroke="#272727" stroke-width="0.567964" stroke-linecap="round" stroke-linejoin="round"/>
<path d="M170.11 153.255L172.457 152.388" stroke="#272727" stroke-width="0.567964" stroke-linecap="round" stroke-linejoin="round"/>
<path d="M116.491 173.057L166.753 154.494" stroke="#272727" stroke-width="0.567964" stroke-linecap="round" stroke-linejoin="round"/>
<path d="M110.448 167.332L166.419 146.662" stroke="#272727" stroke-width="0.567964" stroke-linecap="round" stroke-linejoin="round"/>
<path d="M104.404 161.613L160.375 140.943" stroke="#272727" stroke-width="0.567964" stroke-linecap="round" stroke-linejoin="round"/>
<path d="M98.3662 155.887L154.332 135.217" stroke="#272727" stroke-width="0.567964" stroke-linecap="round" stroke-linejoin="round"/>
<path d="M92.3228 150.161L148.288 129.492" stroke="#272727" stroke-width="0.567964" stroke-linecap="round" stroke-linejoin="round"/>
<path d="M140.265 124.501L142.25 123.766" stroke="#272727" stroke-width="0.567964" stroke-linecap="round" stroke-linejoin="round"/>
<path d="M86.2793 144.436L138.543 125.138" stroke="#272727" stroke-width="0.567964" stroke-linecap="round" stroke-linejoin="round"/>
<path d="M96.9458 132.541L136.207 118.046" stroke="#272727" stroke-width="0.567964" stroke-linecap="round" stroke-linejoin="round"/>
<path d="M80.2412 138.716L91.0504 134.723" stroke="#272727" stroke-width="0.567964" stroke-linecap="round" stroke-linejoin="round"/>
<path d="M99.6553 153.518C105.32 154.258 104.821 144.562 103.384 141.31C102.336 142.511 101.555 143.922 101.093 145.448C100.63 146.974 100.498 148.58 100.703 150.161C100.762 150.9 101.02 151.608 101.449 152.212C101.666 152.512 101.966 152.74 102.313 152.869C102.659 152.997 103.036 153.021 103.395 152.936C103.911 152.718 104.347 152.346 104.646 151.872C105.688 150.49 106.379 148.779 107.476 147.513C108.995 148.538 114.391 150.293 113.612 146.52C113.185 144.436 114.221 144.672 115.334 145.692C115.795 146.109 116.519 145.884 117.089 145.632L122.573 143.219C123.271 142.863 124.027 142.634 124.805 142.544C127.438 142.412 129.16 144.858 131.743 143.131C132.84 142.407 133.092 140.444 134.485 139.698C135.478 139.149 136.646 139.116 137.775 138.963C141.658 138.447 143.643 136.396 147.23 134.543" stroke="#743698" stroke-width="1.13593" stroke-linecap="round" stroke-linejoin="round"/>
<path d="M104.053 159.578C106.176 159.94 107.991 158.004 109.866 157.384C112.263 156.583 113.305 155.607 115.608 154.615C118.652 153.309 122.228 152.706 121.591 148.105C121.158 149.75 121.109 151.56 120.774 153.282C123.242 154.505 123.906 152.404 124.158 150.54C124.986 150.519 125.805 150.354 126.577 150.052C126.577 150.397 126.686 150.787 126.681 151.116C127.865 151.593 128.326 151.269 128.573 150.222C129.883 149.975 130.35 148.747 131.457 148.445C131.737 151.522 132.521 154.214 132.34 157.362C130.24 157.911 129.911 154.286 130.443 152.783C130.991 151.192 132.571 150.342 133.152 148.681C133.273 148.884 133.179 149.119 133.245 149.339C135.889 147.759 139.278 148.187 141.899 146.339C142.722 145.758 143.309 144.595 144.181 144.189C146.078 143.312 146.643 144.343 148.058 142.275" stroke="#743698" stroke-width="1.13593" stroke-linecap="round" stroke-linejoin="round"/>
<path d="M123.16 177.648C126.971 176.551 128.644 167.08 127.547 163.603C126.264 159.397 124.498 164.009 124.086 166.268C123.757 168.078 123.231 172.849 124.92 174.226C128.666 177.264 130.953 171.017 131.413 168.193C131.578 169.959 130.514 172.136 130.947 174.039C133.98 174.396 135.483 171.873 135.291 169.268C135.667 169.628 135.922 170.097 136.021 170.609C136.119 171.121 136.055 171.651 135.839 172.125C138.735 171.922 138.257 167.036 138.581 165.067C138.417 166.444 138.543 168.056 139.469 169.169C140.243 170.091 141.718 170.496 142.689 169.783C143.659 169.071 143.467 167.195 142.288 166.948V178.821C142.325 179.165 142.257 179.511 142.091 179.814C141.701 180.362 140.747 180.247 140.303 179.721C139.912 179.146 139.728 178.456 139.782 177.763C139.727 173.875 140.928 168.55 143.939 165.895C144.094 166.274 144.145 166.686 144.087 167.091C144.375 166.978 144.636 166.805 144.851 166.583C145.065 166.36 145.23 166.094 145.332 165.802C145.529 166.674 146.045 167.771 146.928 167.617C147.221 167.54 147.489 167.389 147.707 167.179C149.154 165.983 150.723 165.193 151.694 163.493C151.831 163.921 151.973 164.349 152.116 164.782C152.346 163.954 153.136 163.411 153.909 163.038C155.089 162.483 156.364 162.161 157.666 162.089C158.763 162.034 159.958 162.15 160.956 161.678C161.398 161.442 161.822 161.172 162.223 160.872C163.36 160.123 164.675 159.691 166.035 159.621" stroke="#743698" stroke-width="1.13593" stroke-linecap="round" stroke-linejoin="round"/>
<path d="M77.9758 73.499C77.9758 73.499 86.723 62.476 89.6844 58.5329C92.6459 54.5898 94.7902 51.5571 94.7902 51.5571C94.7902 51.5571 96.3696 52.802 95.887 54.2169C95.4044 55.6318 85.001 69.8411 82.6867 73.4497C80.3724 77.0582 80.696 81.6265 80.866 83.2005C81.036 84.7744 76.4458 79.6303 77.9758 73.499Z" fill="white" stroke="#272727" stroke-width="1.27267" stroke-linecap="round" stroke-linejoin="round"/>
<path d="M94.7904 51.5571C94.7904 51.5571 100.236 43.9836 104.278 37.6768C108.32 31.3701 114.221 21.899 115.625 20.6377C117.028 19.3763 117.369 22.6668 116.913 24.8714C116.458 27.076 111.627 33.2292 108.364 38.2746C105.101 43.32 103.082 46.9505 100.274 50.2629C97.4666 53.5753 97.6312 53.7343 95.8872 54.2169C94.1433 54.6995 94.4833 52.9721 94.7904 51.5571Z" fill="#272727" stroke="#272727" stroke-width="1.27267" stroke-linecap="round" stroke-linejoin="round"/>
<path d="M76.0949 74.6071C76.6982 70.5214 78.0637 62.9753 81.1842 60.6007C84.3046 58.226 93.7483 60.0523 94.5325 60.1948C95.3168 60.3374 107.744 63.0905 111.533 65.4212C115.323 67.752 117.867 74.4865 118.838 78.3857C119.809 82.2849 121.893 88.8878 122.205 89.3539C122.205 89.3539 125.359 90.7414 127.086 90.5769C128.814 90.4124 131.112 82.3836 135.949 77.6398C140.786 72.8961 143.297 72.2489 148.639 72.7041C153.98 73.1593 174.272 78.6599 176.328 80.6835C178.385 82.7072 179.668 87.2645 179.224 90.5549C178.78 93.8454 179.427 97.4649 179.427 98.0901C179.427 98.7153 181.33 100.75 180.869 102.477C180.408 104.205 180.123 107.962 178.714 108.461C177.304 108.96 166.934 108.696 159.234 107.649C151.534 106.601 140.824 101.956 133.733 98.7098C126.642 95.4632 123.182 94.0648 117.999 94.1032C112.817 94.1416 102.77 94.3609 93.4905 92.2221C84.2114 90.0833 77.9047 86.1896 76.1607 84.484C74.4168 82.7785 75.4971 78.6983 76.0949 74.6071ZM131.66 93.8674C134.199 97.624 144.433 101.326 149.939 102.856C155.445 104.386 168.65 107.128 172.094 105.225C175.539 103.322 177.348 91.9973 177.03 88.0706C176.712 84.144 175.105 81.9613 175.105 81.9613C168.321 77.766 147.092 73.3513 142.705 75.1117C138.318 76.8721 134.122 82.5481 132.581 87.1109C131.04 91.6737 131.66 93.8674 131.66 93.8674ZM87.3319 87.4125C94.1103 91.4489 104.799 92.6334 109.038 92.765C113.277 92.8967 117.346 90.6701 117.473 85.8002C117.599 80.9303 115.032 72.7809 114.072 70.4447C113.113 68.1084 109.965 66.7045 109.965 66.7045C105.715 64.6918 88.0942 60.2552 85.1108 60.7487C82.1274 61.2423 79.517 65.7722 78.9083 72.3915C78.2995 79.0109 80.5535 83.3762 87.3319 87.4125Z" fill="#272727" stroke="#272727" stroke-width="1.27267" stroke-linecap="round" stroke-linejoin="round"/>
<path d="M178.955 97.9523C178.955 97.9523 180.699 100.612 181.944 98.7201C183.189 96.8281 199.247 78.8182 199.247 78.8182C199.247 78.8182 199.872 78.6537 199.724 79.915C199.576 81.1764 182.767 103.744 182.142 104.846C181.516 105.948 178.851 106.283 178.226 105.817C177.601 105.35 178.955 97.9523 178.955 97.9523Z" fill="white" stroke="#272727" stroke-width="1.27267" stroke-linecap="round" stroke-linejoin="round"/>
<path d="M198.149 79.4497C199.067 77.8161 199.894 76.1336 200.628 74.4098C202.328 70.6312 203.37 63.2441 203.644 55.5444C203.919 47.8447 204.193 43.2929 205.613 44.6968C207.034 46.1007 205.816 53.6524 205.553 59.6136C205.29 65.5749 203.436 71.5635 202.986 74.7114C202.646 77.086 200.826 80.8481 199.57 80.8536C198.314 80.8591 198.473 80.5465 198.149 79.4497Z" fill="#272727" stroke="#272727" stroke-width="1.27267" stroke-linecap="round" stroke-linejoin="round"/>
<path d="M94.5329 177.89L101.437 185.705L91.1711 183.391L18.1226 138.701L21.4898 133.2L94.5329 177.89Z" fill="white" stroke="#272727" stroke-width="1.4364" stroke-linecap="round" stroke-linejoin="round"/>
<g opacity="0.5" style="mix-blend-mode:multiply">
<path d="M94.5329 177.89L101.437 185.705L91.1711 183.391L18.1226 138.701L21.4898 133.2L94.5329 177.89Z" fill="#743698"/>
<path d="M94.5329 177.89L101.437 185.705L91.1711 183.391L18.1226 138.701L21.4898 133.2L94.5329 177.89Z" stroke="#272727" stroke-width="1.4364" stroke-linecap="round" stroke-linejoin="round"/>
</g>
<path d="M20.7248 134.452L18.8901 137.451L91.9368 182.144L93.7715 179.145L20.7248 134.452Z" stroke="#272727" stroke-width="0.718198" stroke-linecap="round" stroke-linejoin="round"/>
<path d="M94.5493 177.907L91.1875 183.396L101.437 185.705L94.5493 177.907Z" fill="white" stroke="#272727" stroke-width="1.4364" stroke-linecap="round" stroke-linejoin="round"/>
<path d="M96.3096 184.548L101.437 185.705L97.9932 181.806L96.3096 184.548Z" fill="#743698" stroke="#272727" stroke-width="1.4364" stroke-linecap="round" stroke-linejoin="round"/>
<path d="M11.6293 130.946C11.4078 131.307 11.2596 131.708 11.1932 132.126C11.1268 132.544 11.1435 132.971 11.2423 133.382C11.3411 133.794 11.5201 134.182 11.7691 134.524C12.0181 134.867 12.3321 135.157 12.6933 135.377L18.1225 138.701L21.4898 133.217L16.0605 129.893C15.333 129.446 14.4579 129.306 13.6272 129.504C12.7966 129.701 12.0781 130.22 11.6293 130.946Z" fill="white" stroke="#272727" stroke-width="1.4364" stroke-linecap="round" stroke-linejoin="round"/>
<path d="M11.6293 130.946C11.4078 131.307 11.2596 131.708 11.1932 132.126C11.1268 132.544 11.1435 132.971 11.2423 133.382C11.3411 133.794 11.5201 134.182 11.7691 134.524C12.0181 134.867 12.3321 135.157 12.6933 135.377L15.2927 136.968L18.66 131.484L16.0605 129.893C15.333 129.446 14.4579 129.306 13.6272 129.504C12.7966 129.701 12.0781 130.22 11.6293 130.946Z" fill="#272727" stroke="#272727" stroke-width="1.4364" stroke-linecap="round" stroke-linejoin="round"/>
<path d="M159.037 104.76L157.112 103.405C156.814 103.196 156.473 103.057 156.114 102.998C155.755 102.939 155.388 102.962 155.039 103.065C153.004 103.657 149.165 105.165 148.069 106.356C146.643 107.825 146.193 110.485 146.878 111.735C147.564 112.986 150.377 114.582 150.377 114.582L162.163 107.409L159.037 104.76Z" fill="white" stroke="#272727" stroke-width="0.9473" stroke-miterlimit="10"/>
<g opacity="0.5" style="mix-blend-mode:multiply">
<path d="M159.037 104.76L157.112 103.405C156.814 103.196 156.473 103.057 156.114 102.998C155.755 102.939 155.388 102.962 155.039 103.065C153.004 103.657 149.165 105.165 148.069 106.356C146.643 107.825 146.193 110.485 146.878 111.735C147.564 112.986 150.377 114.582 150.377 114.582L162.163 107.409L159.037 104.76Z" fill="#743698"/>
<path d="M159.037 104.76L157.112 103.405C156.814 103.196 156.473 103.057 156.114 102.998C155.755 102.939 155.388 102.962 155.039 103.065C153.004 103.657 149.165 105.165 148.069 106.356C146.643 107.825 146.193 110.485 146.878 111.735C147.564 112.986 150.377 114.582 150.377 114.582L162.163 107.409L159.037 104.76Z" stroke="#272727" stroke-width="0.9473" stroke-miterlimit="10"/>
</g>
<path d="M160.238 104.205L150.915 108.467C150.915 108.467 147.762 110.249 148.76 115.706L203.354 155.904C203.354 155.904 205.252 157.286 208.679 156.118C212.107 154.95 215.617 150.908 216.357 147.492C217.097 144.075 214.712 143 214.268 142.622C213.823 142.243 162.081 104.611 162.081 104.611C161.534 104.262 160.881 104.118 160.238 104.205Z" fill="white" stroke="#272727" stroke-width="0.9473" stroke-miterlimit="10"/>
<g opacity="0.5" style="mix-blend-mode:multiply">
<path d="M160.238 104.205L150.915 108.467C150.915 108.467 147.762 110.249 148.76 115.706L203.354 155.904C203.354 155.904 205.252 157.286 208.679 156.118C212.107 154.95 215.617 150.908 216.357 147.492C217.097 144.075 214.712 143 214.268 142.622C213.823 142.243 162.081 104.611 162.081 104.611C161.534 104.262 160.881 104.118 160.238 104.205Z" fill="#743698"/>
<path d="M160.238 104.205L150.915 108.467C150.915 108.467 147.762 110.249 148.76 115.706L203.354 155.904C203.354 155.904 205.252 157.286 208.679 156.118C212.107 154.95 215.617 150.908 216.357 147.492C217.097 144.075 214.712 143 214.268 142.622C213.823 142.243 162.081 104.611 162.081 104.611C161.534 104.262 160.881 104.118 160.238 104.205Z" stroke="#272727" stroke-width="0.9473" stroke-miterlimit="10"/>
</g>
<path d="M212.683 153.283C209.244 156.492 205.082 157.621 203.36 155.801C201.638 153.98 203.058 149.894 206.497 146.68C209.935 143.467 214.098 142.343 215.82 144.163C217.542 145.984 216.116 150.07 212.683 153.283Z" fill="white" stroke="#272727" stroke-width="0.9473" stroke-miterlimit="10"/>
<path d="M212.683 153.283C209.244 156.492 205.082 157.621 203.36 155.801C201.638 153.98 203.058 149.894 206.497 146.68C209.935 143.467 214.098 142.343 215.82 144.163C217.542 145.984 216.116 150.07 212.683 153.283Z" fill="#743698"/>
<path d="M212.683 153.283C209.244 156.492 205.082 157.621 203.36 155.801C201.638 153.98 203.058 149.894 206.497 146.68C209.935 143.467 214.098 142.343 215.82 144.163C217.542 145.984 216.116 150.07 212.683 153.283Z" stroke="#272727" stroke-width="0.9473" stroke-miterlimit="10"/>
<path d="M162.075 104.611C161.53 104.264 160.879 104.12 160.238 104.206L150.915 108.467C150.915 108.467 147.762 110.249 148.76 115.706L186.512 143.505C186.244 142.222 186.293 140.346 187.735 138.119C189.073 136.041 195.084 132.69 198.331 130.99C182.964 119.808 162.075 104.611 162.075 104.611Z" fill="#272727" stroke="#272727" stroke-width="1.27267" stroke-linecap="round" stroke-linejoin="round"/>
<path d="M205.395 146.581L185.454 132.131C185.156 131.915 184.917 131.627 184.759 131.294C184.601 130.962 184.529 130.595 184.551 130.227C184.572 129.859 184.685 129.503 184.881 129.19C185.076 128.878 185.347 128.62 185.668 128.44L188.756 126.756C189.118 126.56 189.529 126.47 189.94 126.496C190.351 126.522 190.747 126.664 191.081 126.904L212.162 142.172" fill="white"/>
<path d="M205.395 146.581L185.454 132.131C185.156 131.915 184.917 131.627 184.759 131.294C184.601 130.962 184.529 130.595 184.551 130.227C184.572 129.859 184.685 129.503 184.881 129.19C185.076 128.878 185.347 128.62 185.668 128.44L188.756 126.756C189.118 126.56 189.529 126.47 189.94 126.496C190.351 126.522 190.747 126.664 191.081 126.904L212.162 142.172" stroke="#272727" stroke-width="0.9473" stroke-miterlimit="10"/>
<g opacity="0.5" style="mix-blend-mode:multiply">
<path d="M205.395 146.581L185.454 132.131C185.156 131.915 184.917 131.627 184.759 131.294C184.601 130.962 184.529 130.595 184.551 130.227C184.572 129.859 184.685 129.503 184.881 129.19C185.076 128.878 185.347 128.62 185.668 128.44L188.756 126.756C189.118 126.56 189.529 126.47 189.94 126.496C190.351 126.522 190.747 126.664 191.081 126.904L212.162 142.172" fill="#743698"/>
<path d="M205.395 146.581L185.454 132.131C185.156 131.915 184.917 131.627 184.759 131.294C184.601 130.962 184.529 130.595 184.551 130.227C184.572 129.859 184.685 129.503 184.881 129.19C185.076 128.878 185.347 128.62 185.668 128.44L188.756 126.756C189.118 126.56 189.529 126.47 189.94 126.496C190.351 126.522 190.747 126.664 191.081 126.904L212.162 142.172" stroke="#272727" stroke-width="0.9473" stroke-miterlimit="10"/>
</g>
</svg>
