<svg width="306" height="208" viewBox="0 0 306 208" fill="none" xmlns="http://www.w3.org/2000/svg">
<mask id="mask0_2_911" style="mask-type:luminance" maskUnits="userSpaceOnUse" x="40" y="0" width="225" height="100">
<path d="M40.7324 0H264.474V99.9284H40.7324V0Z" fill="white"/>
</mask>
<g mask="url(#mask0_2_911)">
<path d="M45.9455 99.5258H259.386C262.149 99.5258 264.387 97.3203 264.387 94.5865C264.387 91.8527 262.149 89.6406 259.386 89.6406H230.359L225.412 61.6094C224 53.5863 216.935 47.7688 208.631 47.7688H184.492V31.7227C184.492 14.3295 170.182 0.198303 152.576 0.198303C134.976 0.198303 120.666 14.3295 120.666 31.7227V47.7688H96.5271C88.2234 47.7688 81.1582 53.5863 79.7465 61.6094L74.7989 89.6406H45.8855C43.1221 89.6406 40.8846 91.8527 40.8846 94.5865C40.8846 97.3203 43.182 99.5258 45.9455 99.5258ZM89.6351 63.3593C90.2277 60.0444 93.1111 57.654 96.5271 57.654H120.666V64.9243C120.666 67.658 122.903 69.8702 125.667 69.8702C128.437 69.8702 130.674 67.658 130.674 64.9243V31.6632C130.674 19.7376 140.51 10.0307 152.576 10.0307C164.649 10.0307 174.484 19.7376 174.484 31.6632V47.7094H147.335C144.572 47.7094 142.334 49.9215 142.334 52.6553C142.334 55.389 144.572 57.6012 147.335 57.6012H208.631C212.047 57.6012 214.931 59.985 215.523 63.2998L220.171 89.5811H85.0404L89.6351 63.3593Z" fill="#898EDF"/>
</g>
<mask id="mask1_2_911" style="mask-type:luminance" maskUnits="userSpaceOnUse" x="40" y="148" width="225" height="60">
<path d="M40.7325 148.603H264.474V208H40.7325V148.603Z" fill="white"/>
</mask>
<g mask="url(#mask1_2_911)">
<path d="M259.295 149.399H45.9145C43.151 149.399 40.9136 151.605 40.9136 154.339C40.9136 157.072 43.151 159.284 45.9145 159.284H59.2258L54.0984 188.068C53.2194 192.955 54.5712 197.96 57.8075 201.797C61.0504 205.633 65.8182 207.786 70.8791 207.786H234.39C239.391 207.786 244.166 205.574 247.402 201.797C250.638 197.96 251.997 192.955 251.111 188.068L245.99 159.284H259.355C262.119 159.284 264.356 157.072 264.356 154.339C264.356 151.605 262.065 149.399 259.295 149.399ZM239.691 195.458C238.333 197.029 236.448 197.901 234.39 197.901H70.8191C68.7615 197.901 66.7572 197.029 65.4653 195.458C64.1069 193.886 63.5808 191.852 63.9337 189.818L69.3475 159.284H235.802L241.223 189.818C241.576 191.852 240.983 193.886 239.691 195.458Z" fill="#743698"/>
</g>
<path d="M49.7602 136V112.2H63.8702V114.988H52.9902V122.264H62.0682V124.916H52.9902V136H49.7602ZM72.6881 136.408C71.2148 136.408 69.8775 136.034 68.6761 135.286C67.4748 134.538 66.5115 133.484 65.7861 132.124C65.0835 130.741 64.7321 129.121 64.7321 127.262C64.7321 125.494 65.0835 123.907 65.7861 122.502C66.5115 121.097 67.4975 119.986 68.7441 119.17C70.0135 118.331 71.4641 117.912 73.0961 117.912C74.1161 117.912 75.0341 118.093 75.8501 118.456C76.6888 118.796 77.4141 119.227 78.0261 119.748V118.32H80.8141V131.716C80.8141 132.577 81.0181 133.144 81.4261 133.416C81.8568 133.665 82.3215 133.79 82.8201 133.79L82.1741 136.17C79.9981 136.17 78.6835 135.286 78.2301 133.518C77.7088 134.243 76.9948 134.912 76.0881 135.524C75.2041 136.113 74.0708 136.408 72.6881 136.408ZM73.3681 133.688C74.2295 133.688 75.0455 133.484 75.8161 133.076C76.5868 132.645 77.2328 132.113 77.7541 131.478V121.992C77.1421 121.561 76.4621 121.221 75.7141 120.972C74.9888 120.7 74.2181 120.564 73.4021 120.564C72.3141 120.564 71.3508 120.847 70.5121 121.414C69.6961 121.958 69.0501 122.729 68.5741 123.726C68.0981 124.701 67.8601 125.845 67.8601 127.16C67.8601 128.429 68.0981 129.563 68.5741 130.56C69.0501 131.535 69.7075 132.305 70.5461 132.872C71.3848 133.416 72.3255 133.688 73.3681 133.688ZM91.6665 136.408C90.3292 136.408 89.1165 136.238 88.0285 135.898C86.9632 135.558 86.0792 135.116 85.3765 134.572L86.6685 132.022C87.2579 132.521 87.9945 132.94 88.8785 133.28C89.7852 133.597 90.7485 133.756 91.7685 133.756C93.0379 133.756 93.9899 133.552 94.6245 133.144C95.2819 132.713 95.6105 132.169 95.6105 131.512C95.6105 131.036 95.4859 130.617 95.2365 130.254C95.0099 129.891 94.5792 129.54 93.9445 129.2C93.3099 128.837 92.3919 128.452 91.1905 128.044C89.5359 127.477 88.2892 126.809 87.4505 126.038C86.6345 125.245 86.2265 124.157 86.2265 122.774C86.2265 121.414 86.8159 120.269 87.9945 119.34C89.1959 118.388 90.8505 117.912 92.9585 117.912C94.0919 117.912 95.1005 118.037 95.9845 118.286C96.8685 118.513 97.6619 118.807 98.3645 119.17L97.5145 121.686C96.9025 121.323 96.1999 121.029 95.4065 120.802C94.6359 120.575 93.7745 120.462 92.8225 120.462C91.6439 120.462 90.7485 120.7 90.1365 121.176C89.5245 121.652 89.2185 122.173 89.2185 122.74C89.2185 123.284 89.4565 123.749 89.9325 124.134C90.4085 124.519 91.3379 124.939 92.7205 125.392C94.9645 126.14 96.5285 126.967 97.4125 127.874C98.2965 128.781 98.7385 129.914 98.7385 131.274C98.7385 132.861 98.0925 134.119 96.8005 135.048C95.5312 135.955 93.8199 136.408 91.6665 136.408ZM102.811 136V110.84H105.871V121.142C106.505 120.213 107.31 119.442 108.285 118.83C109.259 118.218 110.404 117.912 111.719 117.912C113.713 117.912 115.198 118.513 116.173 119.714C117.17 120.915 117.669 122.502 117.669 124.474V136H114.609V124.814C114.609 123.545 114.314 122.525 113.725 121.754C113.135 120.983 112.308 120.598 111.243 120.598C110.2 120.598 109.203 120.972 108.251 121.72C107.321 122.445 106.528 123.307 105.871 124.304V136H102.811ZM122.932 136V118.32H125.992V136H122.932ZM124.462 115.294C123.873 115.294 123.363 115.079 122.932 114.648C122.524 114.217 122.32 113.719 122.32 113.152C122.32 112.495 122.513 111.973 122.898 111.588C123.283 111.203 123.805 111.01 124.462 111.01C125.051 111.01 125.55 111.225 125.958 111.656C126.389 112.064 126.604 112.563 126.604 113.152C126.604 113.787 126.411 114.308 126.026 114.716C125.641 115.101 125.119 115.294 124.462 115.294ZM138.878 136.408C137.201 136.408 135.693 136.023 134.356 135.252C133.019 134.459 131.965 133.371 131.194 131.988C130.446 130.583 130.072 128.973 130.072 127.16C130.072 125.256 130.457 123.613 131.228 122.23C131.999 120.847 133.053 119.782 134.39 119.034C135.727 118.286 137.223 117.912 138.878 117.912C140.533 117.912 142.017 118.286 143.332 119.034C144.669 119.782 145.723 120.847 146.494 122.23C147.287 123.59 147.684 125.211 147.684 127.092C147.684 128.973 147.299 130.617 146.528 132.022C145.757 133.405 144.703 134.481 143.366 135.252C142.051 136.023 140.555 136.408 138.878 136.408ZM138.878 133.688C140.669 133.688 142.063 133.087 143.06 131.886C144.057 130.662 144.556 129.087 144.556 127.16C144.556 125.981 144.307 124.905 143.808 123.93C143.309 122.933 142.629 122.139 141.768 121.55C140.929 120.938 139.966 120.632 138.878 120.632C137.087 120.632 135.693 121.221 134.696 122.4C133.699 123.579 133.2 125.143 133.2 127.092C133.2 128.271 133.449 129.37 133.948 130.39C134.447 131.387 135.115 132.192 135.954 132.804C136.815 133.393 137.79 133.688 138.878 133.688ZM151.752 136V118.32H154.71V121.278C155.345 120.326 156.15 119.533 157.124 118.898C158.122 118.241 159.3 117.912 160.66 117.912C162.655 117.912 164.14 118.513 165.114 119.714C166.112 120.915 166.61 122.502 166.61 124.474V136H163.55V124.814C163.55 123.545 163.244 122.525 162.632 121.754C162.043 120.983 161.216 120.598 160.15 120.598C159.108 120.598 158.122 120.972 157.192 121.72C156.263 122.445 155.47 123.307 154.812 124.304V136H151.752ZM188.323 136.408C186.668 136.408 185.161 136.193 183.801 135.762C182.441 135.309 181.296 134.719 180.367 133.994L181.999 131.274C182.815 131.954 183.733 132.509 184.753 132.94C185.773 133.371 186.963 133.586 188.323 133.586C189.955 133.586 191.247 133.246 192.199 132.566C193.151 131.886 193.627 130.968 193.627 129.812C193.627 129.155 193.491 128.577 193.219 128.078C192.947 127.557 192.414 127.058 191.621 126.582C190.85 126.083 189.705 125.551 188.187 124.984C186.555 124.349 185.251 123.715 184.277 123.08C183.302 122.423 182.599 121.686 182.169 120.87C181.761 120.031 181.557 119.045 181.557 117.912C181.557 116.779 181.863 115.759 182.475 114.852C183.109 113.923 184.027 113.186 185.229 112.642C186.453 112.075 187.926 111.792 189.649 111.792C191.054 111.792 192.312 111.939 193.423 112.234C194.556 112.506 195.655 112.903 196.721 113.424L195.531 116.178C194.76 115.725 193.853 115.351 192.811 115.056C191.791 114.739 190.714 114.58 189.581 114.58C188.085 114.58 186.906 114.875 186.045 115.464C185.183 116.053 184.753 116.813 184.753 117.742C184.753 118.331 184.877 118.853 185.127 119.306C185.376 119.759 185.863 120.201 186.589 120.632C187.337 121.063 188.447 121.55 189.921 122.094C191.689 122.751 193.083 123.443 194.103 124.168C195.145 124.893 195.882 125.687 196.313 126.548C196.743 127.387 196.959 128.35 196.959 129.438C196.959 130.911 196.585 132.169 195.837 133.212C195.111 134.255 194.091 135.048 192.777 135.592C191.485 136.136 190 136.408 188.323 136.408ZM201.391 136V110.84H204.451V121.142C205.086 120.213 205.89 119.442 206.865 118.83C207.84 118.218 208.984 117.912 210.299 117.912C212.294 117.912 213.778 118.513 214.753 119.714C215.75 120.915 216.249 122.502 216.249 124.474V136H213.189V124.814C213.189 123.545 212.894 122.525 212.305 121.754C211.716 120.983 210.888 120.598 209.823 120.598C208.78 120.598 207.783 120.972 206.831 121.72C205.902 122.445 205.108 123.307 204.451 124.304V136H201.391ZM228.958 136.408C227.281 136.408 225.773 136.023 224.436 135.252C223.099 134.459 222.045 133.371 221.274 131.988C220.526 130.583 220.152 128.973 220.152 127.16C220.152 125.256 220.537 123.613 221.308 122.23C222.079 120.847 223.133 119.782 224.47 119.034C225.807 118.286 227.303 117.912 228.958 117.912C230.613 117.912 232.097 118.286 233.412 119.034C234.749 119.782 235.803 120.847 236.574 122.23C237.367 123.59 237.764 125.211 237.764 127.092C237.764 128.973 237.379 130.617 236.608 132.022C235.837 133.405 234.783 134.481 233.446 135.252C232.131 136.023 230.635 136.408 228.958 136.408ZM228.958 133.688C230.749 133.688 232.143 133.087 233.14 131.886C234.137 130.662 234.636 129.087 234.636 127.16C234.636 125.981 234.387 124.905 233.888 123.93C233.389 122.933 232.709 122.139 231.848 121.55C231.009 120.938 230.046 120.632 228.958 120.632C227.167 120.632 225.773 121.221 224.776 122.4C223.779 123.579 223.28 125.143 223.28 127.092C223.28 128.271 223.529 129.37 224.028 130.39C224.527 131.387 225.195 132.192 226.034 132.804C226.895 133.393 227.87 133.688 228.958 133.688ZM241.814 143.48V122.842C241.814 122.071 241.622 121.527 241.236 121.21C240.874 120.87 240.398 120.7 239.808 120.7L240.454 118.32C242.54 118.32 243.843 119.147 244.364 120.802C244.591 120.462 244.954 120.065 245.452 119.612C245.974 119.159 246.608 118.762 247.356 118.422C248.127 118.082 249 117.912 249.974 117.912C251.334 117.912 252.604 118.275 253.782 119C254.984 119.703 255.947 120.734 256.672 122.094C257.398 123.431 257.76 125.063 257.76 126.99C257.76 128.871 257.398 130.526 256.672 131.954C255.947 133.359 254.995 134.459 253.816 135.252C252.66 136.023 251.402 136.408 250.042 136.408C249 136.408 248.025 136.204 247.118 135.796C246.212 135.365 245.464 134.878 244.874 134.334V143.48H241.814ZM249.43 133.688C250.972 133.688 252.218 133.087 253.17 131.886C254.145 130.662 254.632 129.064 254.632 127.092C254.632 125.732 254.383 124.565 253.884 123.59C253.408 122.615 252.762 121.867 251.946 121.346C251.153 120.825 250.269 120.564 249.294 120.564C248.32 120.564 247.436 120.813 246.642 121.312C245.872 121.788 245.282 122.309 244.874 122.876V131.58C245.464 132.192 246.144 132.702 246.914 133.11C247.685 133.495 248.524 133.688 249.43 133.688Z" fill="#272727"/>
</svg>
